<svg width="237" height="52" fill="none" xmlns="http://www.w3.org/2000/svg"><path d="M61.5277 16.2607H67.8289C71.6418 16.2607 73.769 18.6954 73.769 21.3916C73.769 23.5042 72.8459 24.8523 71.5013 25.637C73.488 26.2809 75.0935 27.629 75.0935 30.4258C75.0935 33.7659 72.4445 36.2608 68.2704 36.2608H61.5277V16.2607ZM67.9694 24.9932C70.3174 24.9932 71.682 23.5646 71.682 21.6129C71.682 19.7819 70.3374 18.2125 67.9694 18.2125H63.6749V24.9932H67.9694ZM68.4912 34.3091C71.5013 34.3091 72.9864 32.7598 72.9864 30.5868C72.9864 28.454 71.5214 26.8443 68.5313 26.8443H63.6749V34.3091H68.4912Z" fill="white"/><path d="M78.3043 16.2607H80.4315V34.2286H90.4052V36.2608H78.3043V16.2607Z" fill="white"/><path d="M90.2045 26.2607C90.2045 20.4257 94.7398 15.9387 100.499 15.9387C106.259 15.9387 110.794 20.4458 110.794 26.2607C110.794 32.0756 106.259 36.5827 100.499 36.5827C94.7599 36.5827 90.2045 32.0756 90.2045 26.2607ZM108.647 26.2607C108.647 21.5927 105.135 17.9508 100.499 17.9508C95.8636 17.9508 92.3517 21.5927 92.3517 26.2607C92.3517 30.9287 95.8636 34.5706 100.499 34.5706C105.155 34.5505 108.647 30.9287 108.647 26.2607Z" fill="white"/><path d="M112.741 26.2607C112.741 20.4257 117.276 15.9387 123.035 15.9387C128.233 15.9387 131.765 19.3794 132.547 22.7999H130.3C129.437 20.1239 126.668 17.9508 123.035 17.9508C118.4 17.9508 114.888 21.5927 114.888 26.2607C114.888 30.9287 118.4 34.5706 123.035 34.5706C126.688 34.5706 129.437 32.4177 130.3 29.7215H132.547C131.765 33.1621 128.213 36.5827 123.035 36.5827C117.296 36.5827 112.741 32.0756 112.741 26.2607Z" fill="white"/><path d="M135.558 16.2607H137.665V25.0133L146.856 16.2607H149.745L139.832 25.7578L152.033 36.2608H148.862L137.665 26.6028V36.2608H135.558V16.2607Z" fill="white"/><path d="M156.569 20.5465H151.491V16.2607H166.201V20.5465H161.064V36.2608H156.569V20.5465Z" fill="white"/><path d="M167.786 16.2607H175.653C179.406 16.2607 181.834 18.9569 181.834 22.297C181.834 24.8926 180.469 26.5425 177.921 27.4479L184.964 36.2608H179.606L172.984 28.0113H172.241V36.2608H167.786V16.2607ZM175.111 24.1883C176.436 24.1883 177.379 23.4238 177.379 22.2769C177.379 21.0696 176.436 20.3654 175.111 20.3654H172.261V24.1883H175.111Z" fill="white"/><path d="M184.944 28.3332V16.2607H189.399V28.3936C189.399 30.788 190.925 32.2568 193.132 32.2568C195.339 32.2568 196.865 30.788 196.865 28.3936V16.2607H201.32V28.3332C201.32 33.3232 197.888 36.5828 193.112 36.5828C188.356 36.5828 184.944 33.3232 184.944 28.3332Z" fill="white"/><path d="M203.467 29.8421H207.922C208.203 31.5323 209.567 32.4578 211.313 32.4578C212.798 32.4578 213.902 31.8139 213.902 30.6872C213.902 29.7616 213.2 29.0373 211.293 28.5343L209.347 28.0312C206.176 27.1862 203.989 25.1741 203.948 22.0352C203.908 18.2726 206.678 15.9587 210.791 15.9587C215.146 15.9587 217.875 19.1378 217.976 22.1962H213.541C213.099 20.6268 211.855 20.0835 210.791 20.0835C209.507 20.0835 208.464 20.6469 208.444 21.7133C208.403 22.8199 209.306 23.4638 210.872 23.8461L213.139 24.4296C216.39 25.2747 218.417 27.4075 218.417 30.5463C218.417 33.9467 215.608 36.6027 211.313 36.6027C206.377 36.5826 203.627 33.1822 203.467 29.8421Z" fill="white"/><path d="M224.277 20.5465H219.2V16.2607H233.91V20.5465H228.772V36.2608H224.277V20.5465Z" fill="white"/><path d="M18.3018 48.193C17.8603 48.193 17.4589 48.0119 17.1379 47.69C15.9539 46.4023 14.208 44.5109 12.5223 42.6598C11.3784 41.4123 10.2948 40.2453 9.49205 39.36C7.32473 37.0059 5.19755 34.6718 3.13057 32.4586C2.66902 31.9555 2.54861 31.3318 2.74929 30.708C2.90983 30.2251 3.07037 29.7624 3.23091 29.2795C3.31118 29.0179 3.41152 28.7563 3.49179 28.4948C3.77274 27.6899 4.03362 26.8851 4.31457 26.0803C4.81626 24.5913 5.31796 23.1225 5.81965 21.6336C6.1006 20.7885 6.40161 19.9233 6.68256 19.0782C6.92338 18.3337 7.18426 17.5893 7.42507 16.8448C7.76622 15.8186 8.12744 14.7925 8.46859 13.7462C8.84988 12.5993 9.25123 11.4524 9.63252 10.3055C9.81313 9.76228 10.2546 9.35986 10.8165 9.23914C11.6192 9.05805 12.4219 8.85684 13.2246 8.67575C13.8668 8.51479 14.529 8.37394 15.1712 8.21298C16.5158 7.89104 20.148 7.06609 22.0143 6.62343C22.0344 6.62343 22.0545 6.62343 22.0745 6.60331C22.2351 6.56307 22.3956 6.52283 22.5561 6.48259C22.5762 6.48259 22.5963 6.46247 22.6163 6.46247C23.8405 6.18077 25.0847 5.89908 26.2887 5.61739L27.0915 5.45642C27.4326 5.37594 27.7938 5.29546 28.135 5.21497C29.3591 4.93328 30.6234 4.63147 31.8475 4.32966C32.3291 4.20893 33.0516 4.20893 33.6737 4.89304C35.54 6.92524 37.4464 8.99769 39.2926 11.0098L40.6572 12.4987C40.6773 12.5188 40.6974 12.5389 40.6974 12.5591L41.9817 13.9474C43.848 15.9595 45.7545 18.0521 47.6609 20.1044C48.283 20.7684 48.2228 21.4323 48.0622 21.8549C47.9619 22.1366 47.8616 22.4183 47.7612 22.7201C47.701 22.9012 47.6408 23.0823 47.5806 23.2633C47.2796 24.1285 46.9786 25.0139 46.6976 25.879C46.3966 26.7241 46.1157 27.5893 45.8147 28.4344C45.6942 28.7764 45.5939 29.0984 45.4735 29.4404C45.3732 29.7422 45.2728 30.0642 45.1524 30.366C45.1524 30.366 45.1524 30.366 45.1524 30.3861C44.8313 31.3117 44.0888 33.5048 43.547 35.1145C43.3664 35.6578 43.2058 36.1205 43.1055 36.4224C42.4633 38.3137 41.8412 40.2051 41.1991 42.0763C40.9984 42.6799 40.5368 43.1025 39.9147 43.2232C39.0518 43.4043 38.1889 43.6256 37.3461 43.8067L36.8042 43.9274C35.259 44.2896 33.7339 44.6518 32.1887 44.9938C31.5064 45.1548 30.804 45.3158 30.1217 45.4767C29.1584 45.698 28.1952 45.9194 27.2319 46.1608C26.1884 46.4023 25.1449 46.6437 24.1014 46.8852L21.8136 47.4083C20.7701 47.6498 19.7266 47.8912 18.6831 48.1327C18.5627 48.193 18.4423 48.193 18.3018 48.193ZM14.1277 40.8288C14.1879 40.9093 14.2682 40.9697 14.3284 41.0501C15.8736 42.7202 17.4589 44.4506 18.6229 45.7182C19.5058 45.517 20.4089 45.3158 21.2919 45.0944L23.5796 44.5713C24.6231 44.3298 25.6666 44.0884 26.7102 43.8469C27.6734 43.6256 28.6367 43.4043 29.5999 43.1829C30.2822 43.022 30.9846 42.861 31.6669 42.7C33.2121 42.3379 34.7373 41.9757 36.2825 41.6336L36.8243 41.5129C37.5467 41.352 38.3093 41.1709 39.0518 41.0099C39.6338 39.2393 40.2358 37.4686 40.8379 35.698C40.9382 35.3761 41.0987 34.9133 41.2793 34.3902C41.48 33.7664 41.7208 33.0622 41.9616 32.3579C41.0385 31.3318 40.0552 30.2453 39.1321 29.199C38.5501 28.535 37.9481 27.871 37.3661 27.207L35.239 33.4847C34.9781 34.2493 34.7172 35.034 34.4563 35.8187C34.2556 36.3821 33.9145 36.7242 33.4128 36.8248C32.9111 36.9254 32.4495 36.7443 32.0482 36.3016C31.1251 35.2956 30.202 34.3097 29.2989 33.3036L28.3357 32.2573C28.3156 32.2372 28.3156 32.2372 28.2955 32.2171L27.4125 31.2513C26.5697 30.3459 25.7068 29.4002 24.8639 28.4746C24.0412 28.6758 23.1983 28.8569 22.3956 29.0581C22.0143 29.1386 21.633 29.2392 21.2517 29.3197C20.1681 29.5813 19.0844 29.8227 17.9807 30.0843L23.5194 36.1004C23.5595 36.1407 23.5997 36.1809 23.6398 36.2211C23.7401 36.3217 23.8405 36.4425 23.9609 36.5632C24.282 36.9455 24.3823 37.4284 24.2218 37.8711C24.0612 38.3137 23.7 38.6356 23.1983 38.7564C22.5561 38.8972 21.934 39.0582 21.2919 39.199C20.4691 39.3801 19.6664 39.5813 18.8436 39.7624C17.6596 40.0441 16.4756 40.3057 15.2916 40.5874L14.6896 40.7282C14.4488 40.7483 14.2882 40.7886 14.1277 40.8288ZM11.2379 37.69L11.3383 37.7906C11.8801 38.3137 12.2012 38.6155 12.4019 38.7765C12.6828 38.7161 12.9638 38.6356 13.2447 38.5753C13.5257 38.5149 13.8066 38.4344 14.0876 38.3741L14.6896 38.2332C15.8736 37.9515 17.0576 37.6698 18.2416 37.4083C19.0644 37.2272 19.8671 37.026 20.6898 36.8449C20.75 36.8248 20.8103 36.8248 20.8705 36.8046L15.2916 30.7282C15.2515 30.6879 15.2314 30.6678 15.1913 30.6276C15.111 30.5471 15.0107 30.4465 14.9103 30.3257C14.4488 29.7624 14.5692 29.2191 14.6495 28.9978C14.7297 28.7966 14.9705 28.2935 15.6729 28.1125C17.3385 27.7302 18.9841 27.3277 20.6497 26.9454C21.031 26.865 21.4123 26.7644 21.7936 26.6839C22.6364 26.4827 23.4993 26.2815 24.3622 26.0803L27.6935 16.1607C27.0714 16.3015 26.4292 16.4625 25.7871 16.6235C24.6231 16.9052 23.4191 17.207 22.3956 17.4283C22.0946 17.5088 21.7735 17.5692 21.4725 17.6496C20.8303 17.7905 20.1882 17.9514 19.546 18.0923C19.3252 18.1527 19.1446 18.1325 19.0242 18.1325C19.0042 18.1325 19.0042 18.1325 18.9841 18.1325C18.6429 18.1325 18.3218 18.0118 18.1011 17.7704C17.8804 17.5289 17.76 17.2271 17.76 16.9052V16.885C17.76 16.7844 17.76 16.5631 17.8402 16.3015C18.1814 15.3156 18.5025 14.3096 18.8436 13.3237L19.1647 12.3981C19.2851 12.0359 19.4256 11.6536 19.546 11.2915C19.7467 10.708 19.9473 10.1245 20.148 9.54095C18.4623 9.92324 16.6161 10.3659 15.7532 10.5671C15.111 10.708 14.4688 10.8689 13.8066 11.0299C13.1444 11.1909 12.4821 11.3317 11.8199 11.4927C11.4788 12.4987 11.1376 13.5249 10.7964 14.5309C10.4553 15.5571 10.0941 16.5832 9.75293 17.6094C9.49205 18.3539 9.25123 19.0983 9.01042 19.8428C8.72947 20.708 8.42846 21.5531 8.14751 22.4183C7.64581 23.9072 7.14412 25.3961 6.64243 26.865C6.36148 27.6698 6.1006 28.4746 5.81965 29.2795C5.73938 29.541 5.63904 29.8026 5.55877 30.0642C5.43836 30.4264 5.31796 30.7885 5.19755 31.1507C7.14412 33.2231 9.17096 35.4364 11.2379 37.69ZM29.9812 30.527C30.0013 30.5471 30.0013 30.5471 30.0213 30.5672L31.0247 31.6537C31.5666 32.2372 32.1084 32.8207 32.6502 33.4244C32.7305 33.1829 32.8108 32.9415 32.891 32.7L35.56 24.7925C35.8008 24.0883 36.2624 23.867 36.6036 23.7865C36.9447 23.706 37.4665 23.7462 37.9682 24.2895C38.9314 25.3358 39.9348 26.4625 40.9181 27.5692C41.5402 28.2734 42.1824 28.9978 42.8246 29.702L42.8647 29.6014C42.8647 29.5813 42.8647 29.5813 42.8848 29.5612C42.9851 29.2593 43.0854 28.9776 43.1858 28.6758C43.3062 28.3338 43.4065 28.0119 43.5269 27.6698C43.8079 26.8247 44.1089 25.9595 44.4099 25.1145C44.7109 24.2493 45.0119 23.3841 45.2929 22.4987C45.3531 22.3177 45.4133 22.1567 45.4735 21.9756C45.5337 21.8146 45.5939 21.6336 45.6541 21.4726C43.8279 19.5007 42.0018 17.4887 40.2158 15.5571L38.8913 14.1084C38.8712 14.0883 38.8512 14.0681 38.8512 14.048L37.5267 12.6194C35.7607 10.6878 33.9346 8.716 32.1285 6.74416C30.9846 7.02585 29.8407 7.28742 28.7169 7.54899C28.3758 7.62947 28.0146 7.70995 27.6734 7.79044L26.9108 7.97153C25.6867 8.25322 24.4024 8.55503 23.1582 8.83672C23.098 8.85684 23.0177 8.87696 22.9374 8.87696C22.5963 9.94337 22.2351 11.0098 21.8738 12.0359C21.7534 12.3981 21.613 12.7804 21.4926 13.1426L21.1715 14.0681C21.031 14.4907 20.8905 14.9132 20.75 15.3357C20.8103 15.3156 20.8905 15.2955 20.9507 15.2955C21.2517 15.215 21.5728 15.1547 21.8738 15.0742C22.8772 14.8528 24.0612 14.551 25.2252 14.2693C26.3891 13.9876 27.6132 13.6858 28.6166 13.4645C28.6367 13.4645 28.6567 13.4444 28.6969 13.4444L29.319 13.3438C29.7404 13.2834 30.1618 13.4243 30.4428 13.7462C30.7237 14.0681 30.804 14.5108 30.6635 14.9132L26.6299 26.865C27.4727 27.7905 28.3156 28.696 29.1384 29.6014L29.9812 30.527Z" fill="white"/></svg>