<svg width="139" height="47" fill="none" xmlns="http://www.w3.org/2000/svg"><path d="M11.0244 0.21237C13.0317 0.174002 15.0079 0.71126 16.7178 1.76025C18.4278 2.80924 19.7996 4.3258 20.6701 6.12959L16.0262 7.88205C15.5685 6.94734 14.8572 6.1591 13.9733 5.60657C13.0893 5.05405 12.0677 4.75932 11.0244 4.75577C10.2539 4.75951 9.49198 4.91792 8.78414 5.22154C8.07631 5.52517 7.43703 5.96779 6.90445 6.52302C6.37186 7.07824 5.95686 7.7347 5.6842 8.45327C5.41153 9.17183 5.28678 9.93777 5.31737 10.7054C5.28678 11.4731 5.41153 12.2391 5.6842 12.9577C5.95686 13.6761 6.37186 14.3326 6.90445 14.8878C7.43703 15.4431 8.07631 15.8858 8.78414 16.1893C9.49198 16.493 10.2539 16.6514 11.0244 16.6551C12.0719 16.6573 13.099 16.3666 13.9889 15.8158C14.8788 15.2651 15.596 14.4765 16.0588 13.5396L20.6701 15.2813C19.7996 17.0851 18.4278 18.6016 16.7178 19.6507C15.0079 20.6996 13.0317 21.2369 11.0244 21.1985C8.23319 21.1985 5.55626 20.093 3.58254 18.1252C1.60883 16.1573 0.500001 13.4884 0.500001 10.7054C0.500001 7.9225 1.60883 5.25355 3.58254 3.28572C5.55626 1.31789 8.23319 0.21237 11.0244 0.21237ZM32.8437 0.21237C35.635 0.21237 38.3118 1.31789 40.2856 3.28572C42.2593 5.25355 43.3681 7.9225 43.3681 10.7054C43.3681 13.4884 42.2593 16.1573 40.2856 18.1252C38.3118 20.093 35.635 21.1985 32.8437 21.1985C30.0525 21.1985 27.3755 20.093 25.4018 18.1252C23.428 16.1573 22.3192 13.4884 22.3192 10.7054C22.3192 7.9225 23.428 5.25355 25.4018 3.28572C27.3755 1.31789 30.0525 0.21237 32.8437 0.21237ZM32.8437 16.6551C33.6115 16.647 34.3699 16.4855 35.0739 16.1799C35.7779 15.8744 36.4133 15.431 36.9425 14.8762C37.4715 14.3216 37.8836 13.6665 38.1543 12.9501C38.425 12.2336 38.5487 11.4704 38.5182 10.7054C38.5662 9.93305 38.4549 9.15905 38.1914 8.43113C37.928 7.70322 37.5177 7.03681 36.9861 6.47296C36.4544 5.90911 35.8127 5.45976 35.1003 5.15261C34.3878 4.84545 33.6199 4.68699 32.8437 4.68699C32.0675 4.68699 31.2995 4.84545 30.5871 5.15261C29.8746 5.45976 29.2329 5.90911 28.7012 6.47296C28.1696 7.03681 27.7595 7.70322 27.4959 8.43113C27.2324 9.15905 27.1213 9.93305 27.1691 10.7054C27.1386 11.4704 27.2624 12.2336 27.533 12.9501C27.8037 13.6665 28.2158 14.3216 28.7449 14.8762C29.274 15.431 29.9094 15.8744 30.6135 16.1799C31.3175 16.4855 32.0758 16.647 32.8437 16.6551ZM46.3952 20.9065V0.504445H51.3645V16.5361H60.4351V20.8632L46.3952 20.9065ZM63.8312 20.9065V4.87475H57.8311V0.547715H74.7896V4.87475H68.8004V20.9065H63.8312ZM61.0861 34.8936C61.2434 36.9929 60.7609 39.0906 59.7021 40.912C58.6433 42.7333 57.0574 44.1933 55.1521 45.1008C53.247 46.0083 51.1112 46.3209 49.0248 45.9976C46.9383 45.6744 44.9985 44.7303 43.4593 43.2893C41.9202 41.8481 40.8534 39.9772 40.3989 37.9214C39.9442 35.8656 40.1231 33.7208 40.9119 31.768C41.7007 29.8152 43.0627 28.1456 44.8193 26.9776C46.5761 25.8097 48.6456 25.198 50.757 25.2226C52.7197 25.2036 54.6464 25.7483 56.3068 26.7919C57.9673 27.8355 59.2913 29.3336 60.1204 31.1074L58.0372 31.9837C57.4013 30.5912 56.3765 29.411 55.0853 28.5841C53.7942 27.7573 52.2915 27.3188 50.757 27.3213C48.5239 27.3213 46.3823 28.2057 44.8034 29.7799C43.2245 31.3542 42.3373 33.4894 42.3373 35.7158C42.3373 37.9421 43.2245 40.0773 44.8034 41.6515C46.3823 43.2258 48.5239 44.1102 50.757 44.1102C52.7309 44.1466 54.6444 43.4301 56.1065 42.1072C57.5684 40.7842 58.4687 38.9546 58.6232 36.9922H49.1511V34.8936H61.0861ZM90.9017 25.2226C92.9795 25.2398 95.0057 25.8697 96.7249 27.033C98.4442 28.1963 99.7796 29.841 100.563 31.7599C101.346 33.6786 101.542 35.7857 101.126 37.8154C100.711 39.8451 99.7015 41.7067 98.2262 43.1655C96.7509 44.6243 94.8755 45.6151 92.8364 46.0131C90.7973 46.411 88.6856 46.1982 86.7676 45.4016C84.8495 44.6049 83.211 43.2599 82.0583 41.5363C80.9057 39.8126 80.2906 37.7874 80.2905 35.7158C80.2742 34.3259 80.5382 32.9471 81.0668 31.661C81.5954 30.3748 82.3778 29.2078 83.3677 28.229C84.3574 27.2503 85.5343 26.4798 86.8286 25.9634C88.1229 25.4469 89.5079 25.195 90.9017 25.2226ZM90.9017 44.1102C92.0025 44.1163 93.0934 43.9022 94.1097 43.4807C95.1261 43.0592 96.0475 42.4389 96.8193 41.6563C97.591 40.8736 98.1976 39.9447 98.6031 38.9244C99.0087 37.904 99.2049 36.813 99.1802 35.7158C99.2205 34.6074 99.0363 33.5024 98.6387 32.4665C98.2411 31.4308 97.6382 30.4855 96.8659 29.6872C96.0938 28.8889 95.168 28.254 94.1443 27.8204C93.1204 27.3866 92.0196 27.1631 90.9071 27.1631C89.7947 27.1631 88.6937 27.3866 87.67 27.8204C86.6462 28.254 85.7205 28.8889 84.9484 29.6872C84.1761 30.4855 83.5732 31.4308 83.1756 32.4665C82.778 33.5024 82.5938 34.6074 82.634 35.7158C82.6109 36.8117 82.8078 37.9012 83.2132 38.9201C83.6186 39.9391 84.2242 40.8669 84.9946 41.6491C85.7649 42.4312 86.6843 43.0519 87.6988 43.4745C88.7133 43.8972 89.8022 44.1133 90.9017 44.1102ZM104.333 25.5147H106.612V38.3661C106.599 39.1492 106.748 39.9267 107.052 40.6493C107.354 41.3719 107.805 42.0238 108.374 42.5638C108.943 43.1037 109.619 43.52 110.358 43.7862C111.096 44.0524 111.883 44.1627 112.667 44.1102C116.29 44.1102 118.743 41.7195 118.743 38.3661V25.5147H121.032V38.3661C121.032 42.9743 117.549 46.2088 112.667 46.2088C107.784 46.2088 104.333 42.9743 104.333 38.3661V25.5147ZM124.276 45.9167V25.5147H131.991C135.886 25.5147 138.5 28.165 138.5 31.605C138.5 35.045 135.842 37.6629 131.991 37.6629H126.565V45.9167H124.276ZM126.555 35.5967H131.98C132.525 35.625 133.071 35.5423 133.583 35.3536C134.095 35.1649 134.563 34.8743 134.96 34.4994C135.356 34.1244 135.672 33.673 135.887 33.1727C136.102 32.6723 136.214 32.1334 136.214 31.5888C136.214 31.0442 136.102 30.5054 135.887 30.005C135.672 29.5046 135.356 29.0532 134.96 28.6783C134.563 28.3033 134.095 28.0126 133.583 27.824C133.071 27.6353 132.525 27.5526 131.98 27.5809H126.555V35.5967ZM11.0244 25.2226C13.0317 25.1842 15.0079 25.7216 16.7178 26.7705C18.4278 27.8195 19.7996 29.3361 20.6701 31.1398L16.0262 32.8815C15.5679 31.948 14.8564 31.1613 13.9723 30.6107C13.0881 30.06 12.0669 29.7674 11.0244 29.766C10.2566 29.7742 9.49827 29.9358 8.79423 30.2412C8.09019 30.5468 7.4548 30.9901 6.92568 31.5449C6.39655 32.0997 5.98446 32.7546 5.7138 33.471C5.44313 34.1875 5.3194 34.9507 5.34992 35.7158C5.3194 36.4807 5.44313 37.244 5.7138 37.9604C5.98446 38.6768 6.39655 39.3318 6.92568 39.8866C7.4548 40.4414 8.09019 40.8846 8.79423 41.1902C9.49827 41.4957 10.2566 41.6573 11.0244 41.6654C12.0733 41.6679 13.1017 41.376 13.992 40.8232C14.8823 40.2703 15.5985 39.4788 16.0588 38.5391L20.6701 40.2916C19.7974 42.0937 18.4252 43.6087 16.7157 44.6575C15.0063 45.7062 13.0312 46.2445 11.0244 46.2088C9.64236 46.2088 8.2738 45.9374 6.99692 45.41C5.72003 44.8827 4.55983 44.1098 3.58254 43.1355C2.60526 42.1611 1.83003 41.0043 1.30113 39.7312C0.772223 38.4582 0.5 37.0937 0.5 35.7158C0.5 34.3377 0.772223 32.9733 1.30113 31.7002C1.83003 30.4271 2.60526 29.2704 3.58254 28.296C4.55983 27.3216 5.72003 26.5488 6.99692 26.0214C8.2738 25.4941 9.64236 25.2226 11.0244 25.2226ZM38.3338 25.5147V29.3009L28.699 41.5464H38.3012V45.8734H22.4494V42.0873L32.0408 29.8418H22.4494V25.5147H38.3338ZM79.2923 45.9167L72.5544 37.2627C74.8764 37.0463 78.3266 35.5102 78.3266 31.3455C78.3266 26.8345 74.2145 25.4606 71.9794 25.4606H63.8202V45.9167H66.1096V37.3491H69.7552L76.4605 45.9167H79.2923ZM66.1096 27.5809H71.9794C72.9952 27.5809 73.9694 27.9832 74.6877 28.6993C75.4059 29.4155 75.8095 30.3868 75.8095 31.3995C75.8095 32.4123 75.4059 33.3835 74.6877 34.0997C73.9694 34.8158 72.9952 35.2182 71.9794 35.2182H66.1096V27.5809Z" fill="white"/></svg>