<svg width="98" height="60" viewBox="0 0 98 60" fill="none" xmlns="http://www.w3.org/2000/svg">
<path d="M90.9001 59.919C89.1113 59.919 87.3029 59.4186 86.32 58.7581L87.3422 56.5164C88.2857 57.1369 89.7207 57.5572 91.018 57.5572C92.4333 57.5572 92.9641 57.1769 92.9641 56.5765C92.9641 54.8151 86.5756 56.6165 86.5756 52.3132C86.5756 50.2717 88.384 48.8306 91.4701 48.8306C92.9248 48.8306 94.5366 49.1708 95.5392 49.7713L94.517 51.993C93.4752 51.3925 92.4333 51.1924 91.4701 51.1924C90.0942 51.1924 89.5044 51.6327 89.5044 52.1931C89.5044 54.0345 95.893 52.2532 95.893 56.4964C95.893 58.4979 94.0649 59.919 90.9001 59.919Z" fill="white"/>
<path d="M80.1791 48.8306C82.6755 48.8306 84.5626 50.3117 84.5626 53.5942V59.7589H81.4961V54.0746C81.4961 52.3332 80.7098 51.5326 79.3535 51.5326C77.8792 51.5326 76.8177 52.4533 76.8177 54.4348V59.7589H73.7512V48.9907H76.6801V50.2516C77.5057 49.3309 78.7441 48.8306 80.1791 48.8306Z" fill="white"/>
<path d="M65.9027 59.919C62.5413 59.919 60.0842 57.6173 60.0842 54.3748C60.0842 51.1323 62.5413 48.8306 65.9027 48.8306C69.264 48.8306 71.7015 51.1323 71.7015 54.3748C71.7015 57.6173 69.264 59.919 65.9027 59.919ZM65.9027 57.3571C67.4359 57.3571 68.5957 56.2362 68.5957 54.3748C68.5957 52.5134 67.4359 51.3925 65.9027 51.3925C64.3694 51.3925 63.19 52.5134 63.19 54.3748C63.19 56.2362 64.3694 57.3571 65.9027 57.3571Z" fill="white"/>
<path d="M56.4912 47.4895C55.3511 47.4895 54.5845 46.7289 54.5845 45.7482C54.5845 44.7674 55.3511 44.0068 56.4912 44.0068C57.6313 44.0068 58.3979 44.7274 58.3979 45.6881C58.3979 46.7289 57.6313 47.4895 56.4912 47.4895ZM54.958 59.7588V48.9906H58.0245V59.7588H54.958Z" fill="white"/>
<path d="M52.411 57.0368L53.2366 59.2385C52.6075 59.6989 51.6837 59.919 50.7401 59.919C48.2437 59.919 46.7891 58.618 46.7891 56.0561V51.6327H45.1575V49.2309H46.7891V46.6089H49.8556V49.2309H52.4896V51.6327H49.8556V56.016C49.8556 56.9367 50.347 57.4371 51.1726 57.4371C51.6247 57.4371 52.0768 57.297 52.411 57.0368Z" fill="white"/>
<path d="M40.5082 48.9907H43.5747V59.7589H40.6655V58.4779C39.8595 59.4187 38.6801 59.919 37.3827 59.919C34.729 59.919 32.8616 58.3979 32.8616 55.0754V48.9907H35.9281V54.615C35.9281 56.4164 36.7144 57.217 38.0707 57.217C39.4861 57.217 40.5082 56.2963 40.5082 54.3148V48.9907Z" fill="white"/>
<path d="M27.0082 59.759V44.9077H30.0747V59.759H27.0082Z" fill="white"/>
<path d="M19.1596 59.919C15.7983 59.919 13.3412 57.6173 13.3412 54.3748C13.3412 51.1323 15.7983 48.8306 19.1596 48.8306C22.521 48.8306 24.9585 51.1323 24.9585 54.3748C24.9585 57.6173 22.521 59.919 19.1596 59.919ZM19.1596 57.3571C20.6929 57.3571 21.8527 56.2362 21.8527 54.3748C21.8527 52.5134 20.6929 51.3925 19.1596 51.3925C17.6264 51.3925 16.447 52.5134 16.447 54.3748C16.447 56.2362 17.6264 57.3571 19.1596 57.3571Z" fill="white"/>
<path d="M6.32961 59.9993C4.14768 59.9993 1.94609 59.3388 0.727356 58.3781L1.80849 55.9362C2.96826 56.7969 4.69808 57.3974 6.34927 57.3974C8.23634 57.3974 9.00297 56.7569 9.00297 55.8962C9.00297 53.2742 1.00255 55.0756 1.00255 49.8716C1.00255 47.4898 2.88963 45.5083 6.80138 45.5083C8.5312 45.5083 10.3003 45.9286 11.578 46.7492L10.5952 49.2111C9.31748 48.4706 8.00046 48.1103 6.78172 48.1103C4.89465 48.1103 4.16734 48.8308 4.16734 49.7115C4.16734 52.2935 12.1677 50.5121 12.1677 55.656C12.1677 57.9978 10.261 59.9993 6.32961 59.9993Z" fill="white"/>
<path d="M47.3436 37.0445C45.5548 37.0445 43.7464 36.5441 42.7635 35.8836L43.7857 33.6419C44.7293 34.2624 46.1642 34.6827 47.4616 34.6827C48.8769 34.6827 49.4076 34.3024 49.4076 33.702C49.4076 31.9406 43.0191 33.742 43.0191 29.4387C43.0191 27.3972 44.8275 25.9561 47.9137 25.9561C49.3683 25.9561 50.9802 26.2963 51.9827 26.8968L50.9605 29.1185C49.9187 28.518 48.8769 28.3179 47.9137 28.3179C46.5377 28.3179 45.948 28.7582 45.948 29.3186C45.948 31.16 52.3365 29.3787 52.3365 33.6219C52.3365 35.6234 50.5084 37.0445 47.3436 37.0445Z" fill="white"/>
<path d="M36.4649 25.9561C39.4331 25.9561 41.733 28.1177 41.733 31.5003C41.733 34.8828 39.4331 37.0445 36.4649 37.0445C35.1479 37.0445 34.0667 36.6242 33.2805 35.7435V40.7673H30.214V26.1162H33.1429V27.3571C33.9095 26.4164 35.0496 25.9561 36.4649 25.9561ZM35.9342 34.4825C37.4674 34.4825 38.6272 33.3617 38.6272 31.5003C38.6272 29.6389 37.4674 28.518 35.9342 28.518C34.4009 28.518 33.2411 29.6389 33.2411 31.5003C33.2411 33.3617 34.4009 34.4825 35.9342 34.4825Z" fill="white"/>
<path d="M22.8931 25.9561C25.8613 25.9561 28.1612 28.1177 28.1612 31.5003C28.1612 34.8828 25.8613 37.0445 22.8931 37.0445C21.5761 37.0445 20.495 36.6242 19.7087 35.7435V40.7673H16.6422V26.1162H19.5711V27.3571C20.3377 26.4164 21.4778 25.9561 22.8931 25.9561ZM22.3624 34.4825C23.8956 34.4825 25.0554 33.3617 25.0554 31.5003C25.0554 29.6389 23.8956 28.518 22.3624 28.518C20.8291 28.518 19.6694 29.6389 19.6694 31.5003C19.6694 33.3617 20.8291 34.4825 22.3624 34.4825Z" fill="white"/>
<path d="M12.0891 36.8844L10.8703 33.8822H4.4818L3.26307 36.8844H0L6.13299 22.8738H9.27812L15.4308 36.8844H12.0891ZM5.50397 31.4203H9.86783L7.6859 26.0562L5.50397 31.4203Z" fill="white"/>
<path d="M93.6165 3.08154C96.1129 3.08154 98 4.56267 98 7.84517V14.0099H94.9335V8.32553C94.9335 6.58421 94.1472 5.7836 92.7909 5.7836C91.3166 5.7836 90.2552 6.7043 90.2552 8.68581V14.0099H87.1887V3.24166H90.1176V4.50262C90.9431 3.58192 92.1815 3.08154 93.6165 3.08154Z" fill="white"/>
<path d="M79.3221 3.08154C82.5459 3.08154 84.4133 4.6027 84.4133 7.86518V14.0099H81.5433V12.6688C80.9733 13.6496 79.8725 14.17 78.3196 14.17C75.8428 14.17 74.3685 12.7689 74.3685 10.9075C74.3685 9.00605 75.6855 7.68505 78.9093 7.68505H81.3468C81.3468 6.34403 80.5605 5.56343 78.9093 5.56343C77.7889 5.56343 76.6291 5.94372 75.8625 6.56419L74.7617 4.38253C75.9214 3.54189 77.6316 3.08154 79.3221 3.08154ZM79.0862 12.0684C80.1084 12.0684 80.993 11.588 81.3468 10.6073V9.50643H79.2435C77.8085 9.50643 77.3564 10.0468 77.3564 10.7674C77.3564 11.548 78.0051 12.0684 79.0862 12.0684Z" fill="white"/>
<path d="M73.3029 8.66579C73.3029 8.90598 73.2636 9.24624 73.2439 9.50643H65.2435C65.5384 10.8475 66.6588 11.6681 68.2707 11.6681C69.3911 11.6681 70.1971 11.3278 70.9244 10.6273L72.5559 12.4287C71.5731 13.5695 70.0988 14.17 68.1921 14.17C64.5359 14.17 62.1573 11.8282 62.1573 8.62576C62.1573 5.40331 64.5752 3.08154 67.7989 3.08154C70.9047 3.08154 73.3029 5.20316 73.3029 8.66579ZM67.8186 5.44334C66.4229 5.44334 65.4204 6.304 65.2042 7.68505H70.4133C70.1971 6.32401 69.1946 5.44334 67.8186 5.44334Z" fill="white"/>
<path d="M55.6228 3.08154C58.591 3.08154 60.8909 5.24319 60.8909 8.62576C60.8909 12.0083 58.591 14.17 55.6228 14.17C54.3058 14.17 53.2247 13.7497 52.4384 12.869V17.8928H49.3719V3.24166H52.3008V4.48261C53.0674 3.54189 54.2075 3.08154 55.6228 3.08154ZM55.0921 11.608C56.6253 11.608 57.7851 10.4872 57.7851 8.62576C57.7851 6.76435 56.6253 5.64349 55.0921 5.64349C53.5588 5.64349 52.3991 6.76435 52.3991 8.62576C52.3991 10.4872 53.5588 11.608 55.0921 11.608Z" fill="white"/>
<path d="M41.5233 14.17C38.162 14.17 35.7048 11.8682 35.7048 8.62576C35.7048 5.3833 38.162 3.08154 41.5233 3.08154C44.8847 3.08154 47.3221 5.3833 47.3221 8.62576C47.3221 11.8682 44.8847 14.17 41.5233 14.17ZM41.5233 11.608C43.0566 11.608 44.2163 10.4872 44.2163 8.62576C44.2163 6.76435 43.0566 5.64349 41.5233 5.64349C39.9901 5.64349 38.8106 6.76435 38.8106 8.62576C38.8106 10.4872 39.9901 11.608 41.5233 11.608Z" fill="white"/>
<path d="M31.1273 4.66275C31.8742 3.62195 33.1323 3.08154 34.7638 3.08154V5.96374C34.5083 5.94372 34.3117 5.92371 34.0758 5.92371C32.3853 5.92371 31.2649 6.86442 31.2649 8.92599V14.0099H28.1984V3.24166H31.1273V4.66275Z" fill="white"/>
<path d="M22.2909 3.2417H25.3574V14.0099H22.4482V12.7289C21.6423 13.6696 20.4628 14.17 19.1655 14.17C16.5118 14.17 14.6443 12.6489 14.6443 9.32633V3.2417H17.7108V8.86598C17.7108 10.6674 18.4971 11.468 19.8535 11.468C21.2688 11.468 22.2909 10.5473 22.2909 8.56575V3.2417Z" fill="white"/>
<path d="M4.97322 11.408H12.4626V14.0099H1.80844V-0.000732422H12.207V2.60125H4.97322V5.64357H11.3618V8.16548H4.97322V11.408Z" fill="white"/>
</svg>
