<svg width="54" height="54" viewBox="0 0 54 54" fill="none" xmlns="http://www.w3.org/2000/svg">
<rect width="54" height="54" rx="10" fill="#0B0B0B"/>
<g clip-path="url(#clip0_34_731)">
<path d="M21.1262 46.4667C24.5755 46.4667 27.3749 43.6294 27.3749 40.1334V33.8H21.1262C17.6769 33.8 14.8774 36.6374 14.8774 40.1334C14.8774 43.6294 17.6769 46.4667 21.1262 46.4667Z" fill="#0ACF83"/>
<path d="M14.8774 27.4669C14.8774 23.9709 17.6769 21.1335 21.1262 21.1335H27.3749V33.8002H21.1262C17.6769 33.8002 14.8774 30.9629 14.8774 27.4669Z" fill="#A259FF"/>
<path d="M14.8774 14.8001C14.8774 11.3041 17.6769 8.4668 21.1262 8.4668H27.3749V21.1335H21.1262C17.6769 21.1335 14.8774 18.2961 14.8774 14.8001Z" fill="#F24E1E"/>
<path d="M27.375 8.4668H33.6238C37.0731 8.4668 39.8725 11.3041 39.8725 14.8001C39.8725 18.2961 37.0731 21.1335 33.6238 21.1335H27.375V8.4668Z" fill="#FF7262"/>
<path d="M39.8725 27.4669C39.8725 30.9629 37.0731 33.8002 33.6238 33.8002C30.1744 33.8002 27.375 30.9629 27.375 27.4669C27.375 23.9709 30.1744 21.1335 33.6238 21.1335C37.0731 21.1335 39.8725 23.9709 39.8725 27.4669Z" fill="#1ABCFE"/>
</g>
<defs>
<clipPath id="clip0_34_731">
<rect width="25" height="38" fill="white" transform="translate(14.875 8.4668)"/>
</clipPath>
</defs>
</svg>
