<svg width="54" height="54" viewBox="0 0 54 54" fill="none" xmlns="http://www.w3.org/2000/svg">
<rect width="54" height="54" rx="10" fill="white"/>
<g clip-path="url(#clip0_34_748)">
<path d="M44.5074 23.838C45.4149 21.1142 45.1024 18.1305 43.6511 15.653C41.4686 11.853 37.0811 9.89799 32.7961 10.818C30.8899 8.67049 28.1511 7.44924 25.2799 7.46674C20.8999 7.45674 17.0136 10.2767 15.6661 14.4442C12.8524 15.0205 10.4236 16.7817 9.00239 19.278C6.80364 23.068 7.30489 27.8455 10.2424 31.0955C9.33489 33.8192 9.64739 36.803 11.0986 39.2805C13.2811 43.0805 17.6686 45.0355 21.9536 44.1155C23.8586 46.263 26.5986 47.4842 29.4699 47.4655C33.8524 47.4767 37.7399 44.6542 39.0874 40.483C41.9011 39.9067 44.3299 38.1455 45.7511 35.6492C47.9474 31.8592 47.4449 27.0855 44.5086 23.8355L44.5074 23.838ZM29.4724 44.8517C27.7186 44.8542 26.0199 44.2405 24.6736 43.1167C24.7349 43.0842 24.8411 43.0255 24.9099 42.983L32.8749 38.383C33.2824 38.1517 33.5324 37.718 33.5299 37.2492V26.0205L36.8961 27.9642C36.9324 27.9817 36.9561 28.0167 36.9611 28.0567V37.3555C36.9561 41.4905 33.6074 44.843 29.4724 44.8517ZM13.3674 37.973C12.4886 36.4555 12.1724 34.6767 12.4736 32.9505C12.5324 32.9855 12.6361 33.0492 12.7099 33.0917L20.6749 37.6917C21.0786 37.928 21.5786 37.928 21.9836 37.6917L31.7074 32.0767V35.9642C31.7099 36.0042 31.6911 36.043 31.6599 36.068L23.6086 40.7167C20.0224 42.7817 15.4424 41.5542 13.3686 37.973H13.3674ZM11.2711 20.5867C12.1461 19.0667 13.5274 17.9042 15.1724 17.3005C15.1724 17.3692 15.1686 17.4905 15.1686 17.5755V26.7767C15.1661 27.2442 15.4161 27.678 15.8224 27.9092L25.5461 33.523L22.1799 35.4667C22.1461 35.4892 22.1036 35.493 22.0661 35.4767L14.0136 30.8242C10.4349 28.7517 9.20739 24.173 11.2699 20.588L11.2711 20.5867ZM38.9286 27.023L29.2049 21.408L32.5711 19.4655C32.6049 19.443 32.6474 19.4392 32.6849 19.4555L40.7374 24.1042C44.3224 26.1755 45.5511 30.7617 43.4799 34.3467C42.6036 35.8642 41.2236 37.0267 39.5799 37.6317V28.1555C39.5836 27.688 39.3349 27.2555 38.9299 27.023H38.9286ZM42.2786 21.9805C42.2199 21.9442 42.1161 21.8817 42.0424 21.8392L34.0774 17.2392C33.6736 17.003 33.1736 17.003 32.7686 17.2392L23.0449 22.8542V18.9667C23.0424 18.9267 23.0611 18.888 23.0924 18.863L31.1436 14.218C34.7299 12.1492 39.3149 13.3805 41.3824 16.968C42.2561 18.483 42.5724 20.2567 42.2761 21.9805H42.2786ZM21.2149 28.9092L17.8474 26.9655C17.8111 26.948 17.7874 26.913 17.7824 26.873V17.5742C17.7849 13.4342 21.1436 10.0792 25.2836 10.0817C27.0349 10.0817 28.7299 10.6967 30.0761 11.8167C30.0149 11.8492 29.9099 11.908 29.8399 11.9505L21.8749 16.5505C21.4674 16.7817 21.2174 17.2142 21.2199 17.683L21.2149 28.9067V28.9092ZM23.0436 24.9667L27.3749 22.4655L31.7061 24.9655V29.9667L27.3749 32.4667L23.0436 29.9667V24.9667Z" fill="black"/>
</g>
<defs>
<clipPath id="clip0_34_748">
<rect width="40" height="40" fill="white" transform="translate(7.375 7.4668)"/>
</clipPath>
</defs>
</svg>
