<svg width="54" height="54" viewBox="0 0 54 54" fill="none" xmlns="http://www.w3.org/2000/svg">
<g clip-path="url(#clip0_34_788)">
<path d="M44.7682 0H9.23184C4.13324 0 0 4.13324 0 9.23184V44.7682C0 49.8668 4.13324 54 9.23184 54H44.7682C49.8668 54 54 49.8668 54 44.7682V9.23184C54 4.13324 49.8668 0 44.7682 0Z" fill="#330000"/>
<path d="M26.3758 14.2883H18.2952L9.01367 39.2623H16.2454L17.4506 35.5319H26.7343L27.9396 39.2623H35.3916L26.3779 14.2883H26.3758ZM22.0903 29.3003H19.4616L22.0903 21.1593L24.719 29.3003H22.0903Z" fill="#FF9A00"/>
<path d="M43.0056 19.5999H36.314V39.2623H43.0056V19.5999Z" fill="#FF9A00"/>
<path d="M43.2258 16.0444C43.2453 17.8782 41.7614 19.1742 39.6618 19.1569C37.5602 19.1742 36.0784 17.8782 36.0978 16.0444C36.0784 14.2105 37.5623 12.9145 39.6618 12.9318C41.7635 12.9145 43.2453 14.2105 43.2258 16.0444Z" fill="#FF9A00"/>
</g>
<defs>
<clipPath id="clip0_34_788">
<rect width="54" height="54" rx="10" fill="white"/>
</clipPath>
</defs>
</svg>
