<svg width="54" height="54" viewBox="0 0 54 54" fill="none" xmlns="http://www.w3.org/2000/svg">
<rect width="54" height="54" rx="10" fill="#00DDB3"/>
<path d="M41.1561 12.4668C31.7032 12.4668 28.2002 19.1459 25.3835 24.5114L23.5431 27.9443C20.5609 33.6346 18.3322 37.0936 12.5895 37.0936C12.233 37.0934 11.8798 37.1627 11.5504 37.2977C11.2209 37.4327 10.9216 37.6307 10.6696 37.8803C10.4176 38.1298 10.2177 38.4259 10.0814 38.7518C9.94502 39.0777 9.8749 39.427 9.875 39.7797C9.8751 40.1324 9.94541 40.4817 10.0819 40.8075C10.2184 41.1333 10.4185 41.4294 10.6706 41.6787C11.1797 42.1823 11.8697 42.4657 12.5895 42.4668C22.0464 42.4668 25.5493 35.7874 28.3661 30.4222L30.2026 26.9893C33.1887 21.2987 35.4174 17.84 41.1561 17.84C41.5131 17.8406 41.8666 17.7715 42.1965 17.6367C42.5264 17.5019 42.8261 17.304 43.0786 17.0543C43.3311 16.8048 43.5314 16.5085 43.668 16.1823C43.8047 15.8561 43.875 15.5065 43.875 15.1534C43.8736 14.4407 43.5866 13.7576 43.0769 13.254C42.5672 12.7504 41.8764 12.4674 41.1561 12.4671V12.4668Z" fill="white"/>
</svg>
