<svg width="56" height="60" viewBox="0 0 56 60" fill="none" xmlns="http://www.w3.org/2000/svg">
<g clip-path="url(#clip0_150_450)">
<path d="M24.1733 0.528809V19.2273H18.4398L5.23467 6.18916V19.2273H0.5V0.528809H6.19715L19.4387 13.6016V0.528809H24.1733Z" fill="white"/>
<path d="M55.3387 5.42083C55.4445 5.88655 55.5 6.37051 55.5 6.8677V12.8874C55.5 13.3733 55.4471 13.8472 55.3457 14.3015C55.3438 14.3129 55.3406 14.3242 55.3381 14.3355C54.8065 16.6736 53.0128 18.5144 50.7335 19.06C50.4836 19.1217 50.2267 19.1658 49.966 19.1928C49.755 19.2155 49.5409 19.2268 49.3235 19.2268H31.8764C31.6584 19.2268 31.4442 19.2155 31.2333 19.1928C30.9726 19.1658 30.717 19.1217 30.4664 19.0613C28.1877 18.5144 26.3934 16.6748 25.8605 14.3355C25.8223 14.1644 25.7904 13.99 25.7643 13.8144C25.7216 13.5117 25.6986 13.2033 25.6986 12.8874V6.8677C25.6986 6.55365 25.7216 6.24338 25.7643 5.94193C25.7898 5.76508 25.8217 5.59201 25.8612 5.42083C26.3921 3.0828 28.1871 1.24007 30.4658 0.695059C30.4875 0.690654 30.5098 0.68499 30.5315 0.679326C30.9636 0.580518 31.4136 0.529541 31.8758 0.529541H49.3229C49.8079 0.529541 50.2796 0.586812 50.7328 0.695059C53.0122 1.2407 54.8059 3.0828 55.3387 5.42083ZM48.9003 14.3362C49.9125 14.3362 50.7328 13.4935 50.7328 12.4538V7.30321C50.7328 6.26352 49.9125 5.42083 48.9003 5.42083H32.3009C31.2881 5.42083 30.4664 6.26352 30.4664 7.30321V12.4532C30.4664 13.4928 31.2874 14.3355 32.3009 14.3355H48.9003V14.3362Z" fill="white"/>
<path d="M24.1733 34.9566V39.6314H0.5V20.9329H5.23467V34.9566H24.1733Z" fill="white"/>
<path d="M25.5431 39.6314V20.9329H30.2778V39.6314H25.5431Z" fill="white"/>
<path d="M55.3419 20.933V25.6078H55.3368V39.6315H50.6028V27.4303L45.9376 32.0365H40.9486L36.4071 27.5518V39.6315H31.6724V25.6078H31.668V20.933H36.4071V20.9418L41.1335 25.6078L43.4428 27.8885L45.7528 25.6078L50.4881 20.933L50.6022 20.8203V20.933H55.3413H55.3419Z" fill="white"/>
<path d="M0.5 59.8939V41.1953H5.23466V59.8939H0.5Z" fill="white"/>
<path d="M30.3479 45.8701H20.8792V59.8939H16.1445V45.8701H6.6752V41.1953H30.3479V45.8701Z" fill="white"/>
<path d="M55.428 59.8939H31.8311V55.2191H50.7093V52.881H31.8311V41.1953H55.428V45.8701H36.5499V48.7311H55.428V59.8945V59.8939Z" fill="white"/>
</g>
<defs>
<clipPath id="clip0_150_450">
<rect width="55" height="59.3651" fill="white" transform="translate(0.5 0.528809)"/>
</clipPath>
</defs>
</svg>
