<svg width="54" height="54" viewBox="0 0 54 54" fill="none" xmlns="http://www.w3.org/2000/svg">
<g clip-path="url(#clip0_34_797)">
<path d="M9.5625 0H44.4375C49.725 0 54 4.38462 54 9.80769V44.1923C54 49.6154 49.725 54 44.4375 54H9.5625C4.275 54 0 49.6154 0 44.1923V9.80769C0 4.38462 4.275 0 9.5625 0Z" fill="#001E36"/>
<path d="M12.1499 37.8692V14.123C12.1499 13.9615 12.2174 13.8692 12.3749 13.8692C12.7574 13.8692 13.1174 13.8692 13.6349 13.8461C14.1749 13.823 14.7374 13.823 15.3449 13.7999C15.9524 13.7769 16.6049 13.7769 17.3024 13.7538C17.9999 13.7307 18.6749 13.7307 19.3499 13.7307C21.1949 13.7307 22.7249 13.9615 23.9849 14.4461C25.1099 14.8384 26.1449 15.4846 26.9999 16.3384C27.7199 17.0769 28.2824 17.9769 28.6424 18.9692C28.9799 19.9384 29.1599 20.9307 29.1599 21.9692C29.1599 23.9538 28.7099 25.5923 27.8099 26.8846C26.9099 28.1769 25.6499 29.1461 24.1874 29.6999C22.6574 30.2769 20.9699 30.4846 19.1249 30.4846C18.5849 30.4846 18.2249 30.4846 17.9999 30.4615C17.7749 30.4384 17.4599 30.4384 17.0324 30.4384V37.8461C17.0549 38.0076 16.9424 38.1461 16.7849 38.1692C16.7624 38.1692 16.7399 38.1692 16.6949 38.1692H12.4199C12.2399 38.1692 12.1499 38.0769 12.1499 37.8692ZM17.0549 18.323V26.0769C17.3699 26.0999 17.6624 26.123 17.9324 26.123H19.1249C20.0024 26.123 20.8799 25.9846 21.7124 25.7076C22.4324 25.4999 23.0624 25.0615 23.5574 24.4846C24.0299 23.9076 24.2549 23.123 24.2549 22.1076C24.2774 21.3923 24.0974 20.6769 23.7374 20.0538C23.3549 19.4538 22.8149 18.9923 22.1624 18.7384C21.3299 18.3923 20.4299 18.2538 19.5074 18.2769C18.9224 18.2769 18.4049 18.2769 17.9774 18.2999C17.5274 18.2769 17.2124 18.2999 17.0549 18.323Z" fill="#31A8FF"/>
<path d="M43.1998 24.6692C42.5248 24.3 41.8048 24.0462 41.0398 23.8846C40.2073 23.7 39.3748 23.5846 38.5198 23.5846C38.0698 23.5615 37.5973 23.6308 37.1698 23.7462C36.8773 23.8154 36.6298 23.9769 36.4723 24.2077C36.3598 24.3923 36.2923 24.6231 36.2923 24.8308C36.2923 25.0385 36.3823 25.2462 36.5173 25.4308C36.7198 25.6846 36.9898 25.8923 37.2823 26.0539C37.7998 26.3308 38.3398 26.5846 38.8798 26.8154C40.0948 27.2308 41.2648 27.8077 42.3448 28.5C43.0873 28.9846 43.6948 29.6308 44.1223 30.4154C44.4823 31.1539 44.6623 31.9616 44.6398 32.7923C44.6623 33.8769 44.3473 34.9615 43.7623 35.8615C43.1323 36.7846 42.2548 37.5 41.2423 37.9154C40.1398 38.4 38.7898 38.6539 37.1698 38.6539C36.1348 38.6539 35.1223 38.5615 34.1098 38.3539C33.3223 38.2154 32.5348 37.9615 31.8148 37.6154C31.6573 37.5231 31.5448 37.3616 31.5673 37.1769V33.1615C31.5673 33.0923 31.5898 33 31.6573 32.9539C31.7248 32.9077 31.7923 32.9308 31.8598 32.9769C32.7373 33.5077 33.6598 33.8769 34.6498 34.1077C35.5048 34.3385 36.4048 34.4539 37.3048 34.4539C38.1598 34.4539 38.7673 34.3385 39.1723 34.1308C39.5323 33.9692 39.7798 33.5769 39.7798 33.1615C39.7798 32.8385 39.5998 32.5385 39.2398 32.2385C38.8798 31.9385 38.1373 31.5923 37.0348 31.1539C35.8873 30.7385 34.8298 30.1846 33.8398 29.4923C33.1423 28.9846 32.5573 28.3154 32.1298 27.5308C31.7698 26.7923 31.5898 25.9846 31.6123 25.1769C31.6123 24.1846 31.8823 23.2385 32.3773 22.3846C32.9398 21.4615 33.7723 20.7231 34.7398 20.2615C35.7973 19.7077 37.1248 19.4539 38.7223 19.4539C39.6448 19.4539 40.5898 19.5231 41.5123 19.6615C42.1873 19.7539 42.8398 19.9385 43.4473 20.1923C43.5373 20.2154 43.6273 20.3077 43.6723 20.4C43.6948 20.4923 43.7173 20.5846 43.7173 20.6769V24.4385C43.7173 24.5308 43.6723 24.6231 43.6048 24.6692C43.4023 24.7154 43.2898 24.7154 43.1998 24.6692Z" fill="#31A8FF"/>
</g>
<defs>
<clipPath id="clip0_34_797">
<rect width="54" height="54" fill="white"/>
</clipPath>
</defs>
</svg>
