<svg width="512" height="512" viewBox="0 0 512 512" fill="none" xmlns="http://www.w3.org/2000/svg">
<g clip-path="url(#clip0_399_747)">
<path d="M256 0C205.099 0.0675212 156.302 20.3177 120.31 56.3101C84.3177 92.3024 64.0675 141.099 64 192C64 329.84 242.88 502.48 250.48 509.76C251.958 511.197 253.939 512.001 256 512.001C258.061 512.001 260.042 511.197 261.52 509.76C269.12 502.48 448 329.84 448 192C447.932 141.099 427.682 92.3024 391.69 56.3101C355.698 20.3177 306.901 0.0675212 256 0Z" fill="black"/>
<path d="M377.491 252.197V257.946H322.257V252.197L333.55 250.76C335.741 250.486 337.041 249.938 337.452 249.117C337.862 248.159 338.068 245.352 338.068 240.698V188.955C338.068 179.509 336.63 172.665 333.756 168.421C331.018 164.041 326.911 161.851 321.436 161.851C319.109 161.851 316.371 162.467 313.222 163.699C310.211 164.794 307.131 166.847 303.983 169.859C300.971 172.87 298.302 177.319 295.975 183.205V240.698C295.975 245.352 296.18 248.159 296.591 249.117C297.001 249.938 298.302 250.486 300.492 250.76L311.785 252.197V257.946H256.551V252.197L267.844 250.76C270.034 250.486 271.335 249.938 271.745 249.117C272.156 248.159 272.361 245.352 272.361 240.698V123.248C272.361 118.594 272.156 115.856 271.745 115.035C271.335 114.077 270.034 113.461 267.844 113.187L256.551 111.75V106H295.975V169.859C299.944 163.562 304.872 158.976 310.758 156.101C316.782 153.227 322.805 151.789 328.828 151.789C338.957 151.789 346.965 155.006 352.852 161.44C358.738 167.874 361.681 176.977 361.681 188.749V240.698C361.681 245.352 361.886 248.159 362.297 249.117C362.708 249.938 364.008 250.486 366.198 250.76L377.491 252.197Z" fill="white"/>
<path d="M194.432 252.813C202.645 252.813 209.421 250.897 214.76 247.064C220.235 243.094 222.973 236.934 222.973 228.584C222.973 222.424 221.125 217.291 217.429 213.184C213.87 209.078 207.436 205.655 198.128 202.918L179.032 197.168C169.45 194.294 162.058 189.366 156.856 182.384C151.791 175.266 149.259 166.437 149.259 155.897C149.259 148.915 150.833 142.413 153.981 136.39C157.267 130.367 162.195 125.507 168.765 121.811C175.473 118.115 183.891 116.267 194.021 116.267C205.109 116.267 214.075 118.321 220.92 122.427C227.764 126.397 232.555 131.599 235.293 138.033C238.031 144.466 238.715 151.379 237.346 158.771L213.733 163.083C215.923 150.353 214.965 140.565 210.858 133.721C206.889 126.876 200.386 123.454 191.352 123.454C184.37 123.454 178.758 125.507 174.515 129.614C170.408 133.721 168.355 139.607 168.355 147.273C168.355 153.569 170.134 159.113 173.693 163.905C177.389 168.696 183.412 172.392 191.762 174.992L210.858 180.742C221.262 183.753 229.064 188.339 234.266 194.499C239.468 200.522 242.069 208.941 242.069 219.755C242.069 227.421 240.289 234.333 236.73 240.493C233.308 246.516 228.038 251.308 220.92 254.867C213.938 258.289 205.177 260 194.637 260C186.971 260 179.716 258.905 172.872 256.715C166.027 254.388 160.278 250.623 155.624 245.421C151.107 240.22 148.232 233.17 147 224.272L160.757 219.344C161.442 228.105 163.358 234.949 166.507 239.877C169.792 244.669 173.83 248.022 178.621 249.939C183.549 251.855 188.819 252.813 194.432 252.813Z" fill="white"/>
</g>
<defs>
<clipPath id="clip0_399_747">
<rect width="512" height="512" fill="white"/>
</clipPath>
</defs>
</svg>
