<svg width="13" height="13" viewBox="0 0 13 13" fill="none" xmlns="http://www.w3.org/2000/svg">
<path d="M4.86427 1.60278L11.0555 6.17309C11.1041 6.21258 11.1433 6.26242 11.1703 6.31897C11.1972 6.37552 11.2112 6.43737 11.2112 6.5C11.2112 6.56263 11.1972 6.62448 11.1703 6.68103C11.1433 6.73759 11.1041 6.78742 11.0555 6.82691L4.86427 11.3972C4.4922 11.5345 4.27739 11.4299 4.21984 11.0836L9.98725 6.82691C10.0359 6.78742 10.0751 6.73759 10.102 6.68103C10.1289 6.62448 10.1429 6.56263 10.1429 6.5C10.1429 6.43737 10.1289 6.37552 10.102 6.31897C10.0751 6.26242 10.0359 6.21258 9.98725 6.17309L4.22223 1.91819C4.22606 1.84538 4.24925 1.77492 4.28941 1.71407C4.32957 1.65322 4.38524 1.60419 4.45067 1.57204C4.51611 1.53989 4.58894 1.52579 4.66165 1.5312C4.73436 1.5366 4.8043 1.56131 4.86427 1.60278ZM2.42718 11.3968L3.94147 10.2791L4.85931 9.60156L8.619 6.82687C8.67017 6.7891 8.71176 6.73985 8.74042 6.68308C8.76908 6.62631 8.78401 6.5636 8.78401 6.5C8.78401 6.4364 8.76908 6.37369 8.74042 6.31692C8.71176 6.26015 8.67017 6.2109 8.619 6.17313L4.85923 3.3982L3.94147 2.72082L2.42718 1.60318L2.42669 1.60266C2.35359 1.55178 2.2659 1.52614 2.17691 1.52961C2.08792 1.53308 2.00249 1.56548 1.93357 1.62189C1.86466 1.6783 1.81603 1.75565 1.79504 1.8422C1.77406 1.92875 1.78188 2.01978 1.81731 2.10149L3.8701 6.5L1.81744 10.8985C1.7923 10.9523 1.77929 11.0109 1.77933 11.0703C1.78058 11.145 1.8022 11.2178 1.84185 11.2811C1.8815 11.3444 1.93768 11.3956 2.00431 11.4292C2.07095 11.4629 2.14552 11.4777 2.21996 11.4721C2.29441 11.4665 2.3659 11.4406 2.42673 11.3973L2.42718 11.3968Z" fill="#A0C1FE"/>
</svg>
