<svg width="287" height="261" viewBox="0 0 287 261" fill="none" xmlns="http://www.w3.org/2000/svg">
<rect width="287" height="261" fill="#A8A8A8"/>
<g id="right-ellipse" filter="url(#filter0_f_5_1778)">
<path d="M198.501 110.826C168.49 87.7896 101.517 67.7183 85.0731 89.1416C68.6289 110.565 99.9112 103.789 107.492 150.46C116.24 204.32 135.078 173.215 151.523 151.792C167.967 130.369 228.512 133.862 198.501 110.826Z" fill="url(#paint0_radial_5_1778)" fill-opacity="0.4"/>
</g>
<g id="left-ellipse" filter="url(#filter1_f_5_1778)">
<path d="M-167.804 42.5003C-143.17 65.0965 -85.7592 87.9253 -69.613 70.323C-53.4668 52.7208 -81.5391 56.2813 -84.5839 14.5956C-88.0977 -33.5111 -107.105 -7.56672 -123.251 10.0355C-139.397 27.6378 -192.438 19.904 -167.804 42.5003Z" fill="url(#paint1_radial_5_1778)" fill-opacity="0.6"/>
</g>
<defs>
<filter id="filter0_f_5_1778" x="0.361328" y="0.0238342" width="286.365" height="260.36" filterUnits="userSpaceOnUse" color-interpolation-filters="sRGB">
<feFlood flood-opacity="0" result="BackgroundImageFix"/>
<feBlend mode="normal" in="SourceGraphic" in2="BackgroundImageFix" result="shape"/>
<feGaussianBlur stdDeviation="40" result="effect1_foregroundBlur_5_1778"/>
</filter>
<filter id="filter1_f_5_1778" x="-254.227" y="-92.939" width="269.587" height="249.518" filterUnits="userSpaceOnUse" color-interpolation-filters="sRGB">
<feFlood flood-opacity="0" result="BackgroundImageFix"/>
<feBlend mode="normal" in="SourceGraphic" in2="BackgroundImageFix" result="shape"/>
<feGaussianBlur stdDeviation="40" result="effect1_foregroundBlur_5_1778"/>
</filter>
<radialGradient id="paint0_radial_5_1778" cx="0" cy="0" r="1" gradientUnits="userSpaceOnUse" gradientTransform="translate(154.338 118.127) rotate(-115.841) scale(55.9412 52.0287)">
<stop stop-color="white"/>
<stop offset="0.269437" stop-color="#D1D1D1"/>
<stop offset="0.541575" stop-color="white"/>
<stop offset="0.780911" stop-color="#A4A4A4"/>
<stop offset="1" stop-color="#BCBCBC"/>
</radialGradient>
<radialGradient id="paint1_radial_5_1778" cx="0" cy="0" r="1" gradientUnits="userSpaceOnUse" gradientTransform="translate(-128.349 39.4674) rotate(69.202) scale(49.4377 46.0072)">
<stop stop-color="#ECECEC"/>
<stop offset="0.269437" stop-color="#AEAEAE"/>
<stop offset="0.541575" stop-color="#D2D2D2"/>
<stop offset="0.780911" stop-color="#F5F5F5"/>
<stop offset="1" stop-color="#7E7E7E"/>
</radialGradient>
</defs>
</svg>
