<svg width="131" height="61" viewBox="0 0 131 61" fill="none" xmlns="http://www.w3.org/2000/svg">
<g clip-path="url(#clip0_150_430)">
<path d="M130.5 -0.000732422H0.5V60.4218H130.5V-0.000732422Z" fill="white"/>
<path d="M57.8864 3.61182H4.70454V57.1633H57.8864V3.61182Z" fill="black"/>
<path d="M126.479 3.61182H62.3777V57.1633H126.479V3.61182Z" fill="black"/>
<path d="M27.9892 47.2301C25.5387 46.7171 23.2876 45.5021 21.5067 43.7311C19.7259 41.9601 18.4913 39.7087 17.9513 37.2478C16.7873 36.7274 15.801 35.8739 15.1151 34.7934C14.4292 33.7129 14.0739 32.4532 14.0935 31.171C14.1131 29.8887 14.5067 28.6406 15.2254 27.5819C15.944 26.5232 16.956 25.7007 18.1353 25.2167C18.2044 21.824 19.5913 18.5937 21.9985 16.219C24.4057 13.8442 27.6414 12.5142 31.0114 12.5142C34.3813 12.5142 37.617 13.8442 40.0242 16.219C42.4314 18.5937 43.8184 21.824 43.8875 25.2167C45.2911 25.7895 46.4518 26.8385 47.1686 28.1819C47.8854 29.5254 48.1132 31.079 47.8127 32.5737C47.5122 34.0685 46.7023 35.4105 45.523 36.3675C44.3438 37.3246 42.8694 37.8364 41.355 37.8145H41.2359V25.0369C41.0944 22.3701 39.9307 19.8627 37.99 18.0427C36.0492 16.2227 33.4827 15.232 30.831 15.2793C28.1793 15.3266 25.6493 16.4082 23.7738 18.2964C21.8983 20.1845 20.8236 22.7318 20.776 25.4019V37.6128C21.3184 39.3642 22.3132 40.9389 23.6586 42.1759C25.004 43.4129 26.6516 44.2677 28.4329 44.6528C28.8387 44.0491 29.4377 43.6037 30.1301 43.3908C30.8225 43.178 31.5664 43.2105 32.2379 43.483C32.9094 43.7556 33.4678 44.2516 33.82 44.8885C34.1723 45.5253 34.2971 46.2645 34.1737 46.9829C34.0503 47.7012 33.6861 48.3552 33.1419 48.8359C32.5976 49.3166 31.9062 49.5949 31.1828 49.6244C30.4594 49.654 29.7479 49.433 29.1667 48.9983C28.5856 48.5636 28.17 47.9414 27.9892 47.2355V47.2301Z" fill="white"/>
<path d="M72.3398 21.3099C72.2602 21.2533 72.1955 21.1782 72.1512 21.0909C72.1069 21.0035 72.0843 20.9066 72.0855 20.8086C72.0895 20.6934 72.1245 20.5815 72.1867 20.4848C72.2489 20.388 72.336 20.3101 72.4387 20.2592C72.5414 20.2083 72.6559 20.1864 72.77 20.1959C72.884 20.2053 72.9934 20.2457 73.0865 20.3127C73.6705 20.8104 74.4102 21.0844 75.1753 21.0865C75.987 21.0865 76.501 20.6996 76.501 20.1438C76.501 19.5989 76.198 19.3156 74.8127 18.9941C73.2218 18.6072 72.329 18.1332 72.329 16.7492C72.329 15.4578 73.4112 14.5696 74.8777 14.5696C75.7207 14.5531 76.5483 14.7985 77.2478 15.2725C77.3405 15.3282 77.4163 15.4085 77.4669 15.5046C77.5175 15.6006 77.5409 15.7089 77.5346 15.8174C77.5328 15.929 77.5015 16.0381 77.4438 16.1334C77.3862 16.2287 77.3043 16.3067 77.2067 16.3595C77.109 16.4123 76.9992 16.4378 76.8884 16.4335C76.7777 16.4292 76.6701 16.3952 76.5768 16.3351C76.0691 15.9866 75.4704 15.797 74.856 15.7902C74.0876 15.7902 73.6385 16.188 73.6385 16.6838C73.6385 17.2614 73.9794 17.5229 75.4242 17.8662C76.9989 18.2531 77.8106 18.8197 77.8106 20.0457C77.8106 21.4516 76.7283 22.2907 75.1428 22.2907C74.1269 22.2825 73.1418 21.9379 72.3398 21.3099Z" fill="white"/>
<path d="M84.2121 21.5604C84.1972 21.7242 84.1221 21.8765 84.0015 21.9874C83.8809 22.0983 83.7234 22.1598 83.56 22.1598C83.3967 22.1598 83.2392 22.0983 83.1186 21.9874C82.9979 21.8765 82.9228 21.7242 82.908 21.5604V21.2716C82.7267 21.5778 82.469 21.831 82.1605 22.0059C81.852 22.1809 81.5034 22.2715 81.1493 22.2687C79.8831 22.2687 79.1472 21.4078 79.1472 20.0892V17.0705C79.1472 16.8985 79.215 16.7336 79.3358 16.612C79.4565 16.4904 79.6203 16.4221 79.7911 16.4221C79.9619 16.4221 80.1257 16.4904 80.2464 16.612C80.3672 16.7336 80.435 16.8985 80.435 17.0705V19.7023C80.435 20.5796 80.8733 21.0754 81.6417 21.0754C81.8195 21.0797 81.9962 21.0455 82.1598 20.9753C82.3233 20.905 82.4701 20.8003 82.59 20.6681C82.71 20.5359 82.8005 20.3793 82.8553 20.209C82.9102 20.0386 82.9281 19.8584 82.908 19.6805V17.0705C82.8997 16.9793 82.9104 16.8873 82.9394 16.8004C82.9685 16.7136 83.0151 16.6338 83.0765 16.5661C83.1378 16.4984 83.2125 16.4444 83.2958 16.4074C83.379 16.3704 83.469 16.3513 83.56 16.3513C83.651 16.3513 83.741 16.3704 83.8243 16.4074C83.9075 16.4444 83.9822 16.4984 84.0436 16.5661C84.1049 16.6338 84.1516 16.7136 84.1806 16.8004C84.2096 16.8873 84.2203 16.9793 84.2121 17.0705V21.5604Z" fill="white"/>
<path d="M85.8193 17.0705C85.811 16.98 85.8216 16.8887 85.8504 16.8026C85.8791 16.7164 85.9254 16.6372 85.9863 16.5701C86.0471 16.5029 86.1212 16.4493 86.2038 16.4126C86.2864 16.3759 86.3756 16.357 86.4659 16.357C86.5562 16.357 86.6455 16.3759 86.728 16.4126C86.8106 16.4493 86.8847 16.5029 86.9456 16.5701C87.0064 16.6372 87.0527 16.7164 87.0814 16.8026C87.1102 16.8887 87.1208 16.98 87.1126 17.0705V17.4083C87.3159 17.0807 87.5993 16.811 87.9356 16.625C88.2719 16.439 88.6499 16.3429 89.0336 16.3458C90.3539 16.3458 91.6472 17.3974 91.6472 19.2882C91.6472 21.168 90.3647 22.2306 89.0336 22.2306C88.6568 22.2351 88.2847 22.1465 87.9498 21.9727C87.6149 21.7989 87.3275 21.545 87.1126 21.2334V23.2386C87.0978 23.401 87.0233 23.552 86.9036 23.6619C86.784 23.7719 86.6279 23.8328 86.4659 23.8328C86.3039 23.8328 86.1478 23.7719 86.0282 23.6619C85.9086 23.552 85.834 23.401 85.8193 23.2386V17.0705ZM90.3323 19.3263C90.3508 19.0984 90.3228 18.869 90.2501 18.6523C90.1773 18.4357 90.0614 18.2363 89.9094 18.0663C89.7574 17.8964 89.5725 17.7596 89.366 17.6642C89.1596 17.5689 88.936 17.517 88.7089 17.5118C88.4833 17.5215 88.2618 17.5764 88.0576 17.6733C87.8533 17.7702 87.6702 17.9071 87.519 18.076C87.3679 18.245 87.2517 18.4425 87.1773 18.6572C87.1028 18.8719 87.0716 19.0993 87.0855 19.3263C87.0716 19.5533 87.1028 19.7807 87.1773 19.9954C87.2517 20.2101 87.3679 20.4077 87.519 20.5766C87.6702 20.7455 87.8533 20.8824 88.0576 20.9793C88.2618 21.0762 88.4833 21.1311 88.7089 21.1408C88.938 21.1422 89.1647 21.0947 89.3743 21.0016C89.5839 20.9084 89.7715 20.7717 89.9248 20.6003C90.0782 20.4289 90.1937 20.2268 90.264 20.0072C90.3342 19.7876 90.3575 19.5556 90.3323 19.3263Z" fill="white"/>
<path d="M92.9783 17.0705C92.9762 16.9847 92.9911 16.8993 93.0222 16.8194C93.0533 16.7395 93.1 16.6667 93.1595 16.6052C93.219 16.5438 93.2901 16.4949 93.3687 16.4616C93.4472 16.4283 93.5316 16.4111 93.6168 16.4112C93.7905 16.4112 93.9571 16.4806 94.0798 16.6043C94.2026 16.7279 94.2716 16.8956 94.2716 17.0705V17.4083C94.475 17.0807 94.7584 16.811 95.0946 16.625C95.4309 16.439 95.8089 16.3429 96.1926 16.3458C97.513 16.3458 98.8062 17.3974 98.8062 19.2882C98.8062 21.168 97.5238 22.2306 96.1926 22.2306C95.8159 22.2351 95.4438 22.1465 95.1089 21.9727C94.774 21.7989 94.4865 21.545 94.2716 21.2334V23.2386C94.2717 23.3244 94.2546 23.4094 94.2215 23.4885C94.1884 23.5676 94.1399 23.6392 94.0789 23.6991C94.0179 23.759 93.9455 23.8061 93.8662 23.8374C93.7868 23.8687 93.7021 23.8837 93.6168 23.8816C93.5328 23.8823 93.4494 23.8662 93.3717 23.8341C93.2939 23.802 93.2232 23.7547 93.1637 23.6949C93.1043 23.635 93.0573 23.5638 93.0255 23.4855C92.9936 23.4072 92.9776 23.3232 92.9783 23.2386V17.0705ZM97.4913 19.3263C97.5098 19.0984 97.4818 18.869 97.4091 18.6523C97.3364 18.4357 97.2205 18.2363 97.0685 18.0663C96.9164 17.8964 96.7315 17.7596 96.5251 17.6642C96.3186 17.5689 96.095 17.517 95.8679 17.5118C95.6423 17.5215 95.4209 17.5764 95.2166 17.6733C95.0123 17.7702 94.8292 17.9071 94.6781 18.076C94.5269 18.245 94.4108 18.4425 94.3363 18.6572C94.2619 18.8719 94.2307 19.0993 94.2446 19.3263C94.2307 19.5533 94.2619 19.7807 94.3363 19.9954C94.4108 20.2101 94.5269 20.4077 94.6781 20.5766C94.8292 20.7455 95.0123 20.8824 95.2166 20.9793C95.4209 21.0762 95.6423 21.1311 95.8679 21.1408C96.097 21.1422 96.3238 21.0947 96.5334 21.0016C96.7429 20.9084 96.9306 20.7717 97.0839 20.6003C97.2372 20.4289 97.3528 20.2268 97.423 20.0072C97.4932 19.7876 97.5165 19.5556 97.4913 19.3263Z" fill="white"/>
<path d="M99.829 19.3482C99.8619 18.569 100.192 17.8328 100.751 17.2932C101.311 16.7536 102.055 16.4524 102.83 16.4524C103.604 16.4524 104.348 16.7536 104.908 17.2932C105.467 17.8328 105.797 18.569 105.83 19.3482C105.829 19.7425 105.749 20.1327 105.596 20.4958C105.443 20.8588 105.22 21.1875 104.939 21.4625C104.659 21.7376 104.326 21.9534 103.962 22.0975C103.597 22.2415 103.208 22.3109 102.816 22.3015C102.426 22.3117 102.037 22.2427 101.674 22.0986C101.31 21.9545 100.979 21.7383 100.701 21.4627C100.422 21.1871 100.201 20.8579 100.051 20.4946C99.9016 20.1314 99.826 19.7415 99.829 19.3482ZM104.542 19.3482C104.552 19.1131 104.515 18.8783 104.433 18.6579C104.351 18.4375 104.226 18.2361 104.065 18.0657C103.904 17.8953 103.71 17.7593 103.495 17.6661C103.281 17.5728 103.05 17.524 102.816 17.5228C102.584 17.5209 102.355 17.5669 102.142 17.6581C101.929 17.7493 101.737 17.8836 101.577 18.0528C101.418 18.2219 101.295 18.4223 101.216 18.6414C101.136 18.8605 101.103 19.0936 101.117 19.3264C101.108 19.5601 101.146 19.7933 101.229 20.012C101.311 20.2307 101.436 20.4306 101.596 20.5998C101.757 20.769 101.949 20.904 102.163 20.997C102.376 21.0899 102.605 21.1388 102.838 21.1409C103.069 21.1434 103.298 21.0982 103.511 21.0081C103.724 20.9179 103.916 20.7847 104.076 20.6166C104.236 20.4486 104.36 20.2493 104.44 20.0311C104.52 19.8129 104.555 19.5805 104.542 19.3482Z" fill="white"/>
<path d="M107.145 17.0705C107.143 16.9847 107.158 16.8994 107.189 16.8195C107.22 16.7395 107.267 16.6667 107.326 16.6053C107.386 16.5438 107.457 16.495 107.535 16.4617C107.614 16.4283 107.698 16.4112 107.784 16.4112C107.869 16.4112 107.954 16.4283 108.033 16.4615C108.112 16.4947 108.184 16.5434 108.245 16.6046C108.305 16.6659 108.353 16.7387 108.385 16.8186C108.417 16.8986 108.434 16.9842 108.433 17.0705V17.6481C108.532 17.3284 108.718 17.0428 108.969 16.8234C109.221 16.6039 109.528 16.4593 109.856 16.4058C109.942 16.3992 110.027 16.4114 110.108 16.4414C110.188 16.4714 110.261 16.5185 110.322 16.5796C110.383 16.6407 110.429 16.7142 110.459 16.7952C110.489 16.8761 110.501 16.9626 110.495 17.0487C110.499 17.1976 110.449 17.3429 110.354 17.4573C110.26 17.5718 110.127 17.6474 109.981 17.6699C109.066 17.8334 108.433 18.5417 108.433 19.8821V21.5604C108.432 21.6455 108.415 21.7297 108.382 21.8081C108.349 21.8865 108.301 21.9576 108.241 22.0173C108.18 22.077 108.109 22.1242 108.03 22.1561C107.952 22.188 107.868 22.2041 107.784 22.2034C107.7 22.2041 107.616 22.188 107.538 22.1559C107.461 22.1238 107.39 22.0765 107.33 22.0167C107.271 21.9568 107.224 21.8856 107.192 21.8073C107.16 21.729 107.144 21.645 107.145 21.5604V17.0705Z" fill="white"/>
<path d="M111.815 20.5798V17.5938H111.604C111.46 17.5938 111.323 17.5364 111.221 17.4342C111.12 17.332 111.063 17.1934 111.063 17.0489C111.063 16.9044 111.12 16.7658 111.221 16.6636C111.323 16.5614 111.46 16.504 111.604 16.504H111.815V15.5396C111.83 15.3771 111.904 15.2261 112.024 15.1162C112.143 15.0063 112.3 14.9453 112.462 14.9453C112.624 14.9453 112.78 15.0063 112.899 15.1162C113.019 15.2261 113.093 15.3771 113.108 15.5396V16.504H114.12C114.264 16.504 114.401 16.5614 114.503 16.6636C114.604 16.7658 114.661 16.9044 114.661 17.0489C114.661 17.1934 114.604 17.332 114.503 17.4342C114.401 17.5364 114.264 17.5938 114.12 17.5938H113.108V20.3782C113.093 20.4737 113.1 20.5717 113.129 20.664C113.158 20.7563 113.209 20.8403 113.276 20.9094C113.343 20.9784 113.426 21.0304 113.517 21.0612C113.609 21.0919 113.706 21.1006 113.801 21.0865C113.908 21.0811 114.014 21.0702 114.12 21.0538C114.264 21.0538 114.401 21.1112 114.503 21.2134C114.604 21.3156 114.661 21.4542 114.661 21.5987C114.66 21.7069 114.627 21.8124 114.567 21.9016C114.506 21.9909 114.42 22.0599 114.32 22.1C114.036 22.2031 113.735 22.2548 113.433 22.2526C112.486 22.2471 111.815 21.8275 111.815 20.5798Z" fill="white"/>
<path d="M74.6342 31.0306L72.0639 27.4779C71.9674 27.3428 71.9145 27.1811 71.9124 27.0148C71.9137 26.9294 71.932 26.8451 71.9661 26.7669C72.0001 26.6888 72.0493 26.6182 72.1108 26.5593C72.1723 26.5005 72.2447 26.4546 72.324 26.4242C72.4033 26.3939 72.4878 26.3798 72.5725 26.3827C72.7052 26.3859 72.8346 26.4244 72.9477 26.4943C73.0608 26.5641 73.1535 26.6629 73.2165 26.7805L75.2944 29.7991L77.4048 26.7696C77.4668 26.6535 77.5579 26.5558 77.6689 26.486C77.7799 26.4163 77.9071 26.3769 78.0379 26.3718C78.1224 26.3696 78.2064 26.3846 78.2849 26.4161C78.3633 26.4477 78.4346 26.495 78.4944 26.5551C78.5541 26.6153 78.6011 26.687 78.6324 26.7661C78.6637 26.8451 78.6787 26.9297 78.6764 27.0148C78.6683 27.1888 78.6037 27.3553 78.4924 27.4888L75.9437 31.0306V33.3845C75.9437 33.5594 75.8747 33.7271 75.752 33.8507C75.6292 33.9743 75.4626 34.0438 75.289 34.0438C75.1153 34.0438 74.9488 33.9743 74.826 33.8507C74.7032 33.7271 74.6342 33.5594 74.6342 33.3845V31.0306Z" fill="white"/>
<path d="M78.6548 31.1613C78.6548 30.3593 78.9712 29.5901 79.5344 29.0229C80.0976 28.4558 80.8615 28.1372 81.658 28.1372C82.4545 28.1372 83.2184 28.4558 83.7817 29.0229C84.3449 29.5901 84.6613 30.3593 84.6613 31.1613C84.66 31.5562 84.5803 31.9468 84.427 32.3102C84.2737 32.6736 84.0499 33.0026 83.7686 33.2777C83.4873 33.5528 83.1543 33.7685 82.7891 33.9123C82.4238 34.056 82.0338 34.1248 81.6418 34.1146C81.2513 34.1249 80.8628 34.0559 80.4994 33.9118C80.1359 33.7677 79.805 33.5514 79.5263 33.2759C79.2476 33.0003 79.0268 32.6711 78.8771 32.3078C78.7273 31.9445 78.6517 31.5546 78.6548 31.1613ZM83.368 31.1613C83.3774 30.9264 83.3399 30.692 83.2576 30.4719C83.1752 30.2519 83.0499 30.0508 82.8888 29.8805C82.7278 29.7102 82.5344 29.5743 82.3202 29.4807C82.106 29.3872 81.8753 29.338 81.6418 29.336C81.4105 29.3348 81.1814 29.3814 80.9686 29.4729C80.7559 29.5643 80.564 29.6987 80.4048 29.8677C80.2456 30.0367 80.1225 30.2367 80.043 30.4554C79.9635 30.6742 79.9294 30.907 79.9427 31.1395C79.934 31.3733 79.9719 31.6064 80.0543 31.8252C80.1367 32.0439 80.2618 32.2438 80.4222 32.413C80.5827 32.5821 80.7752 32.7172 80.9884 32.8101C81.2016 32.9031 81.4311 32.952 81.6634 32.954C81.8945 32.9566 82.1236 32.9114 82.3366 32.8212C82.5495 32.7311 82.7419 32.5978 82.9017 32.4298C83.0614 32.2617 83.1853 32.0624 83.2655 31.8443C83.3457 31.6261 83.3806 31.3936 83.368 31.1613Z" fill="white"/>
<path d="M90.9762 33.3735C90.9614 33.5373 90.8862 33.6896 90.7656 33.8006C90.645 33.9115 90.4875 33.973 90.3241 33.973C90.1608 33.973 90.0033 33.9115 89.8827 33.8006C89.762 33.6896 89.6869 33.5373 89.6721 33.3735V33.0847C89.4908 33.391 89.2331 33.6441 88.9246 33.8191C88.6161 33.994 88.2675 34.0846 87.9134 34.0819C86.6418 34.0819 85.9058 33.2264 85.9058 31.9023V28.8837C85.8976 28.7931 85.9082 28.7019 85.937 28.6157C85.9657 28.5296 86.012 28.4504 86.0728 28.3833C86.1337 28.3161 86.2078 28.2625 86.2904 28.2258C86.373 28.1891 86.4622 28.1702 86.5525 28.1702C86.6428 28.1702 86.732 28.1891 86.8146 28.2258C86.8972 28.2625 86.9713 28.3161 87.0321 28.3833C87.093 28.4504 87.1393 28.5296 87.168 28.6157C87.1968 28.7019 87.2074 28.7931 87.1991 28.8837V31.5155C87.1991 32.3982 87.6374 32.8886 88.4058 32.8886C88.5839 32.8937 88.761 32.8602 88.925 32.7902C89.089 32.7203 89.2361 32.6155 89.3563 32.4831C89.4764 32.3508 89.5669 32.1939 89.6214 32.0231C89.6759 31.8523 89.6932 31.6718 89.6721 31.4937V28.8837C89.6714 28.7976 89.6877 28.7122 89.72 28.6326C89.7524 28.5529 89.8002 28.4805 89.8607 28.4197C89.9211 28.3588 89.993 28.3107 90.0721 28.2781C90.1512 28.2455 90.236 28.2291 90.3214 28.2298C90.4941 28.2298 90.6599 28.2985 90.7825 28.421C90.9051 28.5434 90.9748 28.7097 90.9762 28.8837V33.3735Z" fill="white"/>
<path d="M92.5833 28.8837C92.5818 28.7983 92.5973 28.7135 92.6287 28.6343C92.6602 28.555 92.707 28.4828 92.7664 28.422C92.8259 28.3611 92.8968 28.3128 92.9749 28.2798C93.0531 28.2468 93.1371 28.2298 93.2218 28.2298C93.3078 28.2283 93.3931 28.2442 93.4728 28.2765C93.5526 28.3088 93.6251 28.3568 93.6861 28.4177C93.7471 28.4787 93.7954 28.5513 93.8281 28.6313C93.8608 28.7113 93.8773 28.7971 93.8766 28.8837V29.4613C93.9749 29.1419 94.1596 28.8565 94.41 28.6371C94.6604 28.4176 94.9667 28.2728 95.2943 28.2189C95.4534 28.2153 95.6079 28.2722 95.7272 28.3781C95.8465 28.4841 95.9219 28.6313 95.9382 28.7907C95.9546 28.95 95.9108 29.1097 95.8156 29.238C95.7203 29.3663 95.5806 29.4538 95.4242 29.4831C94.5043 29.6465 93.8766 30.3549 93.8766 31.7007V33.3735C93.8759 33.4592 93.8583 33.5438 93.825 33.6225C93.7916 33.7013 93.7431 33.7726 93.6822 33.8324C93.6214 33.8922 93.5493 33.9392 93.4703 33.9708C93.3913 34.0024 93.3068 34.018 93.2218 34.0165C93.1378 34.0172 93.0544 34.0011 92.9766 33.969C92.8988 33.937 92.8281 33.8897 92.7687 33.8298C92.7093 33.77 92.6623 33.6988 92.6304 33.6205C92.5986 33.5421 92.5826 33.4582 92.5833 33.3735V28.8837Z" fill="white"/>
<path d="M72.1017 44.9197L74.8777 38.6916C74.9384 38.5305 75.0467 38.3919 75.1879 38.2945C75.3291 38.1971 75.4966 38.1455 75.6678 38.1468H75.7327C75.9026 38.1454 76.0687 38.1971 76.2082 38.2947C76.3477 38.3922 76.4538 38.5309 76.5119 38.6916L79.2987 44.9197C79.3469 45.0044 79.3729 45.1 79.3745 45.1976C79.3766 45.2805 79.3623 45.3631 79.3322 45.4403C79.3022 45.5176 79.2571 45.588 79.1996 45.6474C79.1421 45.7069 79.0734 45.7541 78.9975 45.7863C78.9215 45.8185 78.84 45.8351 78.7576 45.8351C78.6159 45.8342 78.478 45.7891 78.3628 45.7062C78.2475 45.6233 78.1605 45.5066 78.1136 45.372L77.5076 43.9661H73.8875L73.2543 45.4155C73.21 45.5408 73.1275 45.6487 73.0187 45.7241C72.9099 45.7994 72.7803 45.8383 72.6483 45.8351C72.568 45.8359 72.4884 45.8204 72.4142 45.7896C72.34 45.7589 72.2726 45.7135 72.2162 45.6561C72.1597 45.5987 72.1152 45.5305 72.0853 45.4555C72.0554 45.3805 72.0408 45.3002 72.0422 45.2194C72.0415 45.1164 72.0617 45.0144 72.1017 44.9197ZM76.9719 42.7946L75.6786 39.7487L74.3636 42.7892L76.9719 42.7946Z" fill="white"/>
<path d="M80.6245 40.6969C80.6163 40.6064 80.6269 40.5151 80.6556 40.429C80.6844 40.3428 80.7307 40.2636 80.7915 40.1965C80.8524 40.1294 80.9264 40.0757 81.009 40.039C81.0916 40.0023 81.1809 39.9834 81.2711 39.9834C81.3614 39.9834 81.4507 40.0023 81.5333 40.039C81.6158 40.0757 81.6899 40.1294 81.7508 40.1965C81.8116 40.2636 81.8579 40.3428 81.8867 40.429C81.9154 40.5151 81.926 40.6064 81.9178 40.6969V41.0511C82.1219 40.7242 82.4054 40.4551 82.7416 40.2692C83.0777 40.0833 83.4553 39.9867 83.8388 39.9885C85.1591 39.9885 86.4524 41.0402 86.4524 42.9309C86.4524 44.8108 85.17 45.8788 83.8388 45.8788C83.4614 45.8836 83.0886 45.7947 82.7536 45.6198C82.4185 45.4449 82.1314 45.1895 81.9178 44.8762V46.8868C81.903 47.0492 81.8285 47.2002 81.7089 47.3102C81.5892 47.4201 81.4331 47.481 81.2711 47.481C81.1092 47.481 80.9531 47.4201 80.8334 47.3102C80.7138 47.2002 80.6393 47.0492 80.6245 46.8868V40.6969ZM85.1375 42.9527C85.156 42.7248 85.128 42.4954 85.0553 42.2788C84.9826 42.0621 84.8666 41.8627 84.7146 41.6928C84.5626 41.5228 84.3777 41.386 84.1712 41.2906C83.9648 41.1953 83.7412 41.1434 83.5141 41.1382C83.2885 41.1479 83.0671 41.2028 82.8628 41.2997C82.6585 41.3966 82.4754 41.5335 82.3243 41.7024C82.1731 41.8714 82.0569 42.069 81.9825 42.2836C81.9081 42.4983 81.8769 42.7258 81.8907 42.9527C81.8769 43.1797 81.9081 43.4071 81.9825 43.6218C82.0569 43.8365 82.1731 44.0341 82.3243 44.203C82.4754 44.3719 82.6585 44.5089 82.8628 44.6057C83.0671 44.7026 83.2885 44.7575 83.5141 44.7672C83.7432 44.7686 83.97 44.7212 84.1795 44.628C84.3891 44.5349 84.5767 44.3981 84.7301 44.2267C84.8834 44.0553 84.999 43.8532 85.0692 43.6336C85.1394 43.414 85.1627 43.182 85.1375 42.9527Z" fill="white"/>
<path d="M87.7835 40.6969C87.7814 40.6114 87.7963 40.5262 87.8275 40.4466C87.8587 40.367 87.9054 40.2946 87.965 40.2335C88.0246 40.1725 88.0958 40.1242 88.1743 40.0915C88.2528 40.0588 88.3371 40.0423 88.4221 40.043C88.5078 40.0423 88.5928 40.0587 88.6722 40.0912C88.7516 40.1238 88.8239 40.1718 88.8847 40.2326C88.9456 40.2934 88.9939 40.3657 89.0269 40.4454C89.0599 40.5251 89.0768 40.6106 89.0768 40.6969V41.0511C89.281 40.7242 89.5645 40.4551 89.9006 40.2692C90.2367 40.0833 90.6143 39.9867 90.9978 39.9886C92.3182 39.9886 93.6115 41.0402 93.6115 42.9309C93.6115 44.8108 92.329 45.8788 90.9978 45.8788C90.6204 45.8837 90.2477 45.7947 89.9126 45.6198C89.5775 45.4449 89.2904 45.1895 89.0768 44.8762V46.8868C89.0769 46.9727 89.0598 47.0576 89.0267 47.1367C88.9936 47.2158 88.9451 47.2874 88.8841 47.3473C88.8231 47.4073 88.7508 47.4543 88.6714 47.4856C88.592 47.517 88.5073 47.532 88.4221 47.5298C88.338 47.5305 88.2547 47.5144 88.1769 47.4823C88.0991 47.4503 88.0284 47.4029 87.969 47.3431C87.9095 47.2832 87.8625 47.2121 87.8307 47.1337C87.7988 47.0554 87.7828 46.9715 87.7835 46.8868V40.6969ZM92.2965 42.9527C92.315 42.7248 92.287 42.4954 92.2143 42.2788C92.1416 42.0621 92.0257 41.8627 91.8737 41.6928C91.7216 41.5229 91.5367 41.386 91.3303 41.2907C91.1238 41.1953 90.9002 41.1434 90.6731 41.1383C90.4475 41.148 90.2261 41.2029 90.0218 41.2997C89.8175 41.3966 89.6344 41.5335 89.4833 41.7024C89.3322 41.8714 89.216 42.069 89.1415 42.2837C89.0671 42.4983 89.0359 42.7258 89.0498 42.9527C89.0359 43.1797 89.0671 43.4072 89.1415 43.6218C89.216 43.8365 89.3322 44.0341 89.4833 44.203C89.6344 44.3719 89.8175 44.5089 90.0218 44.6057C90.2261 44.7026 90.4475 44.7575 90.6731 44.7672C90.9013 44.7671 91.1269 44.7185 91.3352 44.6247C91.5434 44.5308 91.7297 44.3938 91.8819 44.2226C92.034 44.0514 92.1486 43.8498 92.2182 43.631C92.2878 43.4122 92.3108 43.1811 92.2857 42.9527H92.2965Z" fill="white"/>
</g>
<defs>
<clipPath id="clip0_150_430">
<rect width="130" height="60.4225" fill="white" transform="translate(0.5 -0.000732422)"/>
</clipPath>
</defs>
</svg>
