<svg width="54" height="54" viewBox="0 0 54 54" fill="none" xmlns="http://www.w3.org/2000/svg">
<rect width="54" height="54" rx="10" fill="white"/>
<g clip-path="url(#clip0_34_817)">
<mask id="mask0_34_817" style="mask-type:alpha" maskUnits="userSpaceOnUse" x="7" y="8" width="39" height="39">
<path fill-rule="evenodd" clip-rule="evenodd" d="M34.5715 46.2072C35.17 46.4404 35.8525 46.4254 36.4565 46.1347L44.2801 42.3702C45.1022 41.9746 45.625 41.1426 45.625 40.2298V14.7038C45.625 13.791 45.1022 12.959 44.2801 12.5634L36.4565 8.79873C35.6638 8.41726 34.7359 8.51069 34.0401 9.01655C33.9408 9.08881 33.8461 9.16949 33.7572 9.2584L18.7799 22.9225L12.2561 17.9704C11.6488 17.5094 10.7994 17.5471 10.2353 18.0602L8.14295 19.9636C7.45303 20.5911 7.45224 21.6765 8.14124 22.3052L13.7989 27.4667L8.14124 32.6283C7.45224 33.2569 7.45303 34.3424 8.14295 34.9699L10.2353 36.8733C10.7994 37.3863 11.6488 37.4241 12.2561 36.9631L18.7799 32.011L33.7572 45.6751C33.9941 45.9121 34.2723 46.0907 34.5715 46.2072ZM36.1308 18.8403L24.7665 27.4667L36.1308 36.0932V18.8403Z" fill="white"/>
</mask>
<g mask="url(#mask0_34_817)">
<path d="M44.2805 12.5694L36.4508 8.79959C35.5445 8.36323 34.4614 8.54729 33.7501 9.25855L8.11861 32.6285C7.42918 33.2571 7.42998 34.3425 8.12032 34.9701L10.214 36.8734C10.7784 37.3865 11.6283 37.4242 12.236 36.9633L43.1023 13.5474C44.1378 12.7619 45.6251 13.5004 45.6251 14.8002V14.7093C45.6251 13.797 45.1025 12.9652 44.2805 12.5694Z" fill="#0065A9"/>
<g filter="url(#filter0_d_34_817)">
<path d="M44.2805 42.3642L36.4508 46.134C35.5445 46.5705 34.4614 46.3863 33.7501 45.6751L8.11861 22.3052C7.42918 21.6766 7.42998 20.5911 8.12032 19.9636L10.214 18.0602C10.7784 17.5471 11.6283 17.5094 12.236 17.9703L43.1023 41.3862C44.1378 42.1717 45.6251 41.4332 45.6251 40.1334V40.2243C45.6251 41.1367 45.1025 41.9684 44.2805 42.3642Z" fill="#007ACC"/>
</g>
<g filter="url(#filter1_d_34_817)">
<path d="M36.451 46.1347C35.5444 46.5709 34.4613 46.3864 33.75 45.6751C34.6264 46.5515 36.125 45.9308 36.125 44.6913V10.2422C36.125 9.0027 34.6264 8.38197 33.75 9.2584C34.4613 8.54708 35.5444 8.36276 36.451 8.79873L44.2793 12.5634C45.1019 12.959 45.625 13.791 45.625 14.7038V40.2298C45.625 41.1426 45.1019 41.9746 44.2793 42.3702L36.451 46.1347Z" fill="#1F9CF0"/>
</g>
<g style="mix-blend-mode:overlay" opacity="0.25">
<path fill-rule="evenodd" clip-rule="evenodd" d="M34.5486 46.2072C35.1471 46.4404 35.8295 46.4254 36.4336 46.1348L44.2571 42.3702C45.0792 41.9746 45.602 41.1426 45.602 40.2298V14.7038C45.602 13.791 45.0793 12.959 44.2572 12.5634L36.4336 8.79873C35.6408 8.41726 34.713 8.51069 34.0172 9.01654C33.9178 9.08881 33.8231 9.16949 33.7343 9.2584L18.757 22.9225L12.2332 17.9704C11.6259 17.5094 10.7764 17.5472 10.2124 18.0602L8.12 19.9636C7.43008 20.5912 7.42929 21.6766 8.11829 22.3052L13.7759 27.4667L8.11829 32.6283C7.42929 33.2569 7.43008 34.3423 8.12 34.9699L10.2124 36.8732C10.7764 37.3863 11.6259 37.4241 12.2332 36.9631L18.757 32.011L33.7343 45.6751C33.9712 45.9121 34.2494 46.0907 34.5486 46.2072ZM36.1078 18.8403L24.7435 27.4667L36.1078 36.0932V18.8403Z" fill="url(#paint0_linear_34_817)"/>
</g>
</g>
</g>
<defs>
<filter id="filter0_d_34_817" x="-0.731289" y="9.3151" width="54.6896" height="45.3867" filterUnits="userSpaceOnUse" color-interpolation-filters="sRGB">
<feFlood flood-opacity="0" result="BackgroundImageFix"/>
<feColorMatrix in="SourceAlpha" type="matrix" values="0 0 0 0 0 0 0 0 0 0 0 0 0 0 0 0 0 0 127 0" result="hardAlpha"/>
<feOffset/>
<feGaussianBlur stdDeviation="4.16667"/>
<feColorMatrix type="matrix" values="0 0 0 0 0 0 0 0 0 0 0 0 0 0 0 0 0 0 0.25 0"/>
<feBlend mode="overlay" in2="BackgroundImageFix" result="effect1_dropShadow_34_817"/>
<feBlend mode="normal" in="SourceGraphic" in2="effect1_dropShadow_34_817" result="shape"/>
</filter>
<filter id="filter1_d_34_817" x="25.4167" y="0.231358" width="28.5417" height="54.4709" filterUnits="userSpaceOnUse" color-interpolation-filters="sRGB">
<feFlood flood-opacity="0" result="BackgroundImageFix"/>
<feColorMatrix in="SourceAlpha" type="matrix" values="0 0 0 0 0 0 0 0 0 0 0 0 0 0 0 0 0 0 127 0" result="hardAlpha"/>
<feOffset/>
<feGaussianBlur stdDeviation="4.16667"/>
<feColorMatrix type="matrix" values="0 0 0 0 0 0 0 0 0 0 0 0 0 0 0 0 0 0 0.25 0"/>
<feBlend mode="overlay" in2="BackgroundImageFix" result="effect1_dropShadow_34_817"/>
<feBlend mode="normal" in="SourceGraphic" in2="effect1_dropShadow_34_817" result="shape"/>
</filter>
<linearGradient id="paint0_linear_34_817" x1="26.602" y1="8.5647" x2="26.602" y2="46.3688" gradientUnits="userSpaceOnUse">
<stop stop-color="white"/>
<stop offset="1" stop-color="white" stop-opacity="0"/>
</linearGradient>
<clipPath id="clip0_34_817">
<rect width="38" height="38" fill="white" transform="translate(7.625 8.4668)"/>
</clipPath>
</defs>
</svg>
